<?xml version="1.0" encoding="UTF-8" standalone="no"?>
<!DOCTYPE svg PUBLIC "-//W3C//DTD SVG 1.1//EN"
"http://www.w3.org/Graphics/SVG/1.1/DTD/svg11.dtd">
<svg version="1.1" xmlns="http://www.w3.org/2000/svg" xmlns:xlink="http://www.w3.org/1999/xlink">
<defs>
<clipPath id="c0_17"><path d="M18.5,1191.5l0,-1173l898,0l0,1173Z" /></clipPath>
<style type="text/css"><![CDATA[
.g1_17{
fill: none;
stroke: #000000;
stroke-width: 1;
stroke-linecap: butt;
stroke-linejoin: miter;
}
]]></style>
</defs>
<g clip-path="url(#c0_17)">
<path d="M129.5,362.5l78,0" class="g1_17" />
<path d="M208.5,362.5l116,0" class="g1_17" />
<path d="M325.5,362.5l77,0" class="g1_17" />
<path d="M402.5,362.5l87,0" class="g1_17" />
<path d="M490.5,362.5l116,0" class="g1_17" />
<path d="M128.5,421.5l0,-59" class="g1_17" />
<path d="M207.5,421.5l0,-59" class="g1_17" />
<path d="M324.5,421.5l0,-59" class="g1_17" />
<path d="M402.5,421.5l0,-59" class="g1_17" />
<path d="M489.5,421.5l0,-59" class="g1_17" />
<path d="M606.5,421.5l0,-59" class="g1_17" />
<path d="M128.5,422.5l0,-1" class="g1_17" />
<path d="M129.5,422.5l78,0" class="g1_17" />
<path d="M207.5,422.5l0,-1" class="g1_17" />
<path d="M208.5,422.5l116,0" class="g1_17" />
<path d="M324.5,422.5l0,-1" class="g1_17" />
<path d="M325.5,422.5l77,0" class="g1_17" />
<path d="M402.5,422.5l0,-1" class="g1_17" />
<path d="M402.5,422.5l87,0" class="g1_17" />
<path d="M489.5,422.5l0,-1" class="g1_17" />
<path d="M490.5,422.5l116,0" class="g1_17" />
<path d="M606.5,422.5l0,-1" class="g1_17" />
<path d="M128.5,441.5l0,-19" class="g1_17" />
<path d="M207.5,441.5l0,-19" class="g1_17" />
<path d="M324.5,441.5l0,-19" class="g1_17" />
<path d="M402.5,441.5l0,-19" class="g1_17" />
<path d="M489.5,441.5l0,-19" class="g1_17" />
<path d="M606.5,441.5l0,-19" class="g1_17" />
<path d="M128.5,442.5l0,-1" class="g1_17" />
<path d="M129.5,442.5l78,0" class="g1_17" />
<path d="M207.5,442.5l0,-1" class="g1_17" />
<path d="M208.5,442.5l116,0" class="g1_17" />
<path d="M324.5,442.5l0,-1" class="g1_17" />
<path d="M325.5,442.5l77,0" class="g1_17" />
<path d="M402.5,442.5l0,-1" class="g1_17" />
<path d="M402.5,442.5l87,0" class="g1_17" />
<path d="M489.5,442.5l0,-1" class="g1_17" />
<path d="M490.5,442.5l116,0" class="g1_17" />
<path d="M606.5,442.5l0,-1" class="g1_17" />
<path d="M128.5,461.5l0,-19" class="g1_17" />
<path d="M207.5,461.5l0,-19" class="g1_17" />
<path d="M324.5,461.5l0,-19" class="g1_17" />
<path d="M402.5,461.5l0,-19" class="g1_17" />
<path d="M489.5,461.5l0,-19" class="g1_17" />
<path d="M606.5,461.5l0,-19" class="g1_17" />
<path d="M128.5,462.5l0,-1" class="g1_17" />
<path d="M129.5,462.5l78,0" class="g1_17" />
<path d="M207.5,462.5l0,-1" class="g1_17" />
<path d="M208.5,462.5l116,0" class="g1_17" />
<path d="M324.5,462.5l0,-1" class="g1_17" />
<path d="M325.5,462.5l77,0" class="g1_17" />
<path d="M402.5,462.5l0,-1" class="g1_17" />
<path d="M402.5,462.5l87,0" class="g1_17" />
<path d="M489.5,462.5l0,-1" class="g1_17" />
<path d="M490.5,462.5l116,0" class="g1_17" />
<path d="M606.5,462.5l0,-1" class="g1_17" />
<path d="M128.5,481.5l0,-19" class="g1_17" />
<path d="M207.5,481.5l0,-19" class="g1_17" />
<path d="M324.5,481.5l0,-19" class="g1_17" />
<path d="M402.5,481.5l0,-19" class="g1_17" />
<path d="M489.5,481.5l0,-19" class="g1_17" />
<path d="M606.5,481.5l0,-19" class="g1_17" />
<path d="M128.5,482.5l0,-1" class="g1_17" />
<path d="M129.5,482.5l78,0" class="g1_17" />
<path d="M207.5,482.5l0,-1" class="g1_17" />
<path d="M208.5,482.5l116,0" class="g1_17" />
<path d="M324.5,482.5l0,-1" class="g1_17" />
<path d="M325.5,482.5l77,0" class="g1_17" />
<path d="M402.5,482.5l0,-1" class="g1_17" />
<path d="M402.5,482.5l87,0" class="g1_17" />
<path d="M489.5,482.5l0,-1" class="g1_17" />
<path d="M490.5,482.5l116,0" class="g1_17" />
<path d="M606.5,482.5l0,-1" class="g1_17" />
<path d="M128.5,501.5l0,-19" class="g1_17" />
<path d="M207.5,501.5l0,-19" class="g1_17" />
<path d="M324.5,501.5l0,-19" class="g1_17" />
<path d="M402.5,501.5l0,-19" class="g1_17" />
<path d="M489.5,501.5l0,-19" class="g1_17" />
<path d="M606.5,501.5l0,-19" class="g1_17" />
<path d="M128.5,502.5l0,-1" class="g1_17" />
<path d="M129.5,502.5l78,0" class="g1_17" />
<path d="M207.5,502.5l0,-1" class="g1_17" />
<path d="M208.5,502.5l116,0" class="g1_17" />
<path d="M324.5,502.5l0,-1" class="g1_17" />
<path d="M325.5,502.5l77,0" class="g1_17" />
<path d="M402.5,502.5l0,-1" class="g1_17" />
<path d="M402.5,502.5l87,0" class="g1_17" />
<path d="M489.5,502.5l0,-1" class="g1_17" />
<path d="M490.5,502.5l116,0" class="g1_17" />
<path d="M606.5,502.5l0,-1" class="g1_17" />
<path d="M128.5,522.5l0,-20" class="g1_17" />
<path d="M207.5,522.5l0,-20" class="g1_17" />
<path d="M324.5,522.5l0,-20" class="g1_17" />
<path d="M402.5,522.5l0,-20" class="g1_17" />
<path d="M489.5,522.5l0,-20" class="g1_17" />
<path d="M606.5,522.5l0,-20" class="g1_17" />
<path d="M129.5,522.5l78,0" class="g1_17" />
<path d="M208.5,522.5l116,0" class="g1_17" />
<path d="M325.5,522.5l77,0" class="g1_17" />
<path d="M402.5,522.5l87,0" class="g1_17" />
<path d="M490.5,522.5l116,0" class="g1_17" />
<path d="M128.5,542.5l0,-20" class="g1_17" />
<path d="M207.5,542.5l0,-20" class="g1_17" />
<path d="M324.5,542.5l0,-20" class="g1_17" />
<path d="M402.5,542.5l0,-20" class="g1_17" />
<path d="M489.5,542.5l0,-20" class="g1_17" />
<path d="M606.5,542.5l0,-20" class="g1_17" />
<path d="M128.5,543.5l0,-1" class="g1_17" />
<path d="M129.5,543.5l78,0" class="g1_17" />
<path d="M207.5,543.5l0,-1" class="g1_17" />
<path d="M208.5,543.5l116,0" class="g1_17" />
<path d="M324.5,543.5l0,-1" class="g1_17" />
<path d="M325.5,543.5l77,0" class="g1_17" />
<path d="M402.5,543.5l0,-1" class="g1_17" />
<path d="M402.5,543.5l87,0" class="g1_17" />
<path d="M489.5,543.5l0,-1" class="g1_17" />
<path d="M490.5,543.5l116,0" class="g1_17" />
<path d="M606.5,543.5l0,-1" class="g1_17" />
<path d="M128.5,562.5l0,-19" class="g1_17" />
<path d="M207.5,562.5l0,-19" class="g1_17" />
<path d="M324.5,562.5l0,-19" class="g1_17" />
<path d="M402.5,562.5l0,-19" class="g1_17" />
<path d="M489.5,562.5l0,-19" class="g1_17" />
<path d="M606.5,562.5l0,-19" class="g1_17" />
<path d="M128.5,563.5l0,-1" class="g1_17" />
<path d="M129.5,563.5l78,0" class="g1_17" />
<path d="M207.5,563.5l0,-1" class="g1_17" />
<path d="M208.5,563.5l116,0" class="g1_17" />
<path d="M324.5,563.5l0,-1" class="g1_17" />
<path d="M325.5,563.5l77,0" class="g1_17" />
<path d="M402.5,563.5l0,-1" class="g1_17" />
<path d="M402.5,563.5l87,0" class="g1_17" />
<path d="M489.5,563.5l0,-1" class="g1_17" />
<path d="M490.5,563.5l116,0" class="g1_17" />
<path d="M606.5,563.5l0,-1" class="g1_17" />
<path d="M128.5,582.5l0,-19" class="g1_17" />
<path d="M128.5,583.5l0,-1" class="g1_17" />
<path d="M128.5,583.5l0,-1" class="g1_17" />
<path d="M129.5,583.5l78,0" class="g1_17" />
<path d="M207.5,582.5l0,-19" class="g1_17" />
<path d="M207.5,583.5l0,-1" class="g1_17" />
<path d="M208.5,583.5l116,0" class="g1_17" />
<path d="M324.5,582.5l0,-19" class="g1_17" />
<path d="M324.5,583.5l0,-1" class="g1_17" />
<path d="M325.5,583.5l77,0" class="g1_17" />
<path d="M402.5,582.5l0,-19" class="g1_17" />
<path d="M402.5,583.5l0,-1" class="g1_17" />
<path d="M402.5,583.5l87,0" class="g1_17" />
<path d="M489.5,582.5l0,-19" class="g1_17" />
<path d="M489.5,583.5l0,-1" class="g1_17" />
<path d="M490.5,583.5l116,0" class="g1_17" />
<path d="M606.5,582.5l0,-19" class="g1_17" />
<path d="M606.5,583.5l0,-1" class="g1_17" />
<path d="M606.5,583.5l0,-1" class="g1_17" />
</g>
</svg>