<?xml version="1.0" encoding="UTF-8" standalone="no"?>
<!DOCTYPE svg PUBLIC "-//W3C//DTD SVG 1.1//EN"
"http://www.w3.org/Graphics/SVG/1.1/DTD/svg11.dtd">
<svg version="1.1" xmlns="http://www.w3.org/2000/svg" xmlns:xlink="http://www.w3.org/1999/xlink">
<defs>
<clipPath id="c0_6"><path d="M13.5,1148.5l0,-1135l908,0l0,1135Z" /></clipPath>
<style type="text/css"><![CDATA[
.g6_6{
fill: #FF0080;
stroke: #FF0080;
stroke-width: 2;
stroke-linecap: round;
stroke-linejoin: round;
stroke-miterlimit: 8;
}
.g5_6{
fill: #FF0000;
stroke: #FF0000;
stroke-width: 2;
stroke-linecap: round;
stroke-linejoin: round;
stroke-miterlimit: 8;
}
.g3_6{
fill: none;
stroke: #000000;
stroke-width: 2;
stroke-linecap: round;
stroke-linejoin: round;
stroke-miterlimit: 8;
}
.g1_6{
fill: none;
stroke: #BFBFBF;
stroke-width: 1;
stroke-linecap: butt;
stroke-linejoin: miter;
}
.g4_6{
}
.g2_6{
fill: none;
stroke: #000000;
stroke-width: 1;
stroke-linecap: butt;
stroke-linejoin: miter;
}
]]></style>
</defs>
<g clip-path="url(#c0_6)">
<path d="M106.5,186.5l0,-1" class="g1_6" />
<path d="M106.5,186.5l0,-1" class="g1_6" />
<path d="M107.5,186.5l139,0" class="g1_6" />
<path d="M246.5,186.5l0,-1" class="g1_6" />
<path d="M248.5,186.5l130,0" class="g1_6" />
<path d="M378.5,186.5l0,-1" class="g1_6" />
<path d="M380.5,186.5l130,0" class="g1_6" />
<path d="M510.5,186.5l0,-1" class="g1_6" />
<path d="M512.5,186.5l130,0" class="g1_6" />
<path d="M642.5,186.5l0,-1" class="g1_6" />
<path d="M644.5,186.5l130,0" class="g1_6" />
<path d="M774.5,186.5l0,-1" class="g1_6" />
<path d="M774.5,186.5l0,-1" class="g1_6" />
<path d="M106.5,237.5l0,-51" class="g1_6" />
<path d="M246.5,237.5l0,-51" class="g1_6" />
<path d="M378.5,237.5l0,-51" class="g1_6" />
<path d="M510.5,237.5l0,-51" class="g1_6" />
<path d="M642.5,237.5l0,-51" class="g1_6" />
<path d="M774.5,237.5l0,-51" class="g1_6" />
<path d="M106.5,238.5l0,-1" class="g1_6" />
<path d="M107.5,238.5l139,0" class="g1_6" />
<path d="M246.5,238.5l0,-1" class="g1_6" />
<path d="M248.5,238.5l130,0" class="g1_6" />
<path d="M378.5,238.5l0,-1" class="g1_6" />
<path d="M380.5,238.5l130,0" class="g1_6" />
<path d="M510.5,238.5l0,-1" class="g1_6" />
<path d="M512.5,238.5l130,0" class="g1_6" />
<path d="M642.5,238.5l0,-1" class="g1_6" />
<path d="M644.5,238.5l130,0" class="g1_6" />
<path d="M774.5,238.5l0,-1" class="g1_6" />
<path d="M106.5,264.5l0,-26" class="g1_6" />
<path d="M106.5,265.5l0,-1" class="g1_6" />
<path d="M106.5,265.5l0,-1" class="g1_6" />
<path d="M107.5,265.5l139,0" class="g1_6" />
<path d="M246.5,264.5l0,-26" class="g1_6" />
<path d="M246.5,265.5l0,-1" class="g1_6" />
<path d="M248.5,265.5l130,0" class="g1_6" />
<path d="M378.5,264.5l0,-26" class="g1_6" />
<path d="M378.5,265.5l0,-1" class="g1_6" />
<path d="M380.5,265.5l130,0" class="g1_6" />
<path d="M510.5,264.5l0,-26" class="g1_6" />
<path d="M510.5,265.5l0,-1" class="g1_6" />
<path d="M512.5,265.5l130,0" class="g1_6" />
<path d="M642.5,264.5l0,-26" class="g1_6" />
<path d="M642.5,265.5l0,-1" class="g1_6" />
<path d="M644.5,265.5l130,0" class="g1_6" />
<path d="M774.5,264.5l0,-26" class="g1_6" />
<path d="M774.5,265.5l0,-1" class="g1_6" />
<path d="M774.5,265.5l0,-1" class="g1_6" />
<path d="M157.5,311.5l80,0" class="g2_6" />
<path d="M289.5,311.5l71,0" class="g2_6" />
<path d="M106.5,727.5l0,-1" class="g2_6" />
<path d="M106.5,727.5l0,-1" class="g2_6" />
<path d="M107.5,727.5l134,0" class="g2_6" />
<path d="M241.5,727.5l0,-1" class="g2_6" />
<path d="M242.5,727.5l135,0" class="g2_6" />
<path d="M377.5,727.5l0,-1" class="g2_6" />
<path d="M377.5,727.5l135,0" class="g2_6" />
<path d="M512.5,727.5l0,-1" class="g2_6" />
<path d="M513.5,727.5l134,0" class="g2_6" />
<path d="M647.5,727.5l0,-1" class="g2_6" />
<path d="M648.5,727.5l135,0" class="g2_6" />
<path d="M783.5,727.5l0,-1" class="g2_6" />
<path d="M783.5,727.5l0,-1" class="g2_6" />
<path d="M106.5,777.5l0,-50" class="g2_6" />
<path d="M241.5,777.5l0,-50" class="g2_6" />
<path d="M377.5,777.5l0,-50" class="g2_6" />
<path d="M512.5,777.5l0,-50" class="g2_6" />
<path d="M647.5,777.5l0,-50" class="g2_6" />
<path d="M783.5,777.5l0,-50" class="g2_6" />
<path d="M106.5,778.5l0,-1" class="g2_6" />
<path d="M107.5,778.5l134,0" class="g2_6" />
<path d="M241.5,778.5l0,-1" class="g2_6" />
<path d="M242.5,778.5l135,0" class="g2_6" />
<path d="M377.5,778.5l0,-1" class="g2_6" />
<path d="M377.5,778.5l135,0" class="g2_6" />
<path d="M512.5,778.5l0,-1" class="g2_6" />
<path d="M513.5,778.5l134,0" class="g2_6" />
<path d="M647.5,778.5l0,-1" class="g2_6" />
<path d="M648.5,778.5l135,0" class="g2_6" />
<path d="M783.5,778.5l0,-1" class="g2_6" />
<path d="M106.5,803.5l0,-25" class="g2_6" />
<path d="M106.5,804.5l0,-1" class="g2_6" />
<path d="M106.5,804.5l0,-1" class="g2_6" />
<path d="M107.5,804.5l134,0" class="g2_6" />
<path d="M241.5,803.5l0,-25" class="g2_6" />
<path d="M241.5,804.5l0,-1" class="g2_6" />
<path d="M242.5,804.5l135,0" class="g2_6" />
<path d="M377.5,803.5l0,-25" class="g2_6" />
<path d="M377.5,804.5l0,-1" class="g2_6" />
<path d="M377.5,804.5l135,0" class="g2_6" />
<path d="M512.5,803.5l0,-25" class="g2_6" />
<path d="M512.5,804.5l0,-1" class="g2_6" />
<path d="M513.5,804.5l134,0" class="g2_6" />
<path d="M647.5,803.5l0,-25" class="g2_6" />
<path d="M647.5,804.5l0,-1" class="g2_6" />
<path d="M648.5,804.5l135,0" class="g2_6" />
<path d="M783.5,803.5l0,-25" class="g2_6" />
<path d="M783.5,804.5l0,-1" class="g2_6" />
<path d="M783.5,804.5l0,-1" class="g2_6" />
<path d="M157.5,901.5l71,0" class="g2_6" />
<path d="M281.5,901.5l79,0" class="g2_6" />
<path d="M129,553l330,0" class="g3_6" />
<path d="M121,551l0,-126" class="g3_6" />
<path fill-rule="evenodd" d="M127,425l-6,-12l-6,12Z" class="g4_6" />
<path d="M123,553c3,-38,0,-24,4,-42c1,-10,1,-37,8,-47c4,-16,12,-23,27,-26c5,1,9,2,14,3c2,0,4,0,5,2c8,8,-8,2,7,6c3,4,5,10,10,14c1,1,4,3,6,5c4,6,6,10,12,14c1,4,2,9,4,13c4,4,7,4,11,7c5,5,8,10,14,14c4,3,10,7,15,9c2,1,8,2,11,3c3,2,5,5,9,6c8,3,15,4,23,5c3,1,7,1,11,3c1,1,3,2,4,3c8,3,16,5,25,6c4,3,7,5,13,5" class="g3_6" />
<path d="M294,539l0,16" class="g3_6" />
<path fill-rule="evenodd" d="M288,555l6,11l7,-11Z" class="g4_6" />
<path fill-rule="evenodd" d="M297,540c0,2,0,4,0,5c0,2,-3,5,0,7c2,1,6,0,9,0c6,0,11,0,17,0c1,0,2,-1,3,-1c3,0,6,0,10,0c-1,0,-2,0,-4,-1c0,0,-1,0,-2,0c0,0,-1,0,-2,-1c-1,0,-1,0,-2,0c-1,0,-3,-1,-3,-1c-1,0,-3,0,-4,-1c-1,0,-1,0,-2,0c0,0,0,-1,-1,-1l-1,0c-2,-1,-4,-1,-5,-2c0,-1,0,-1,-1,-1c0,0,0,-1,0,-1c0,0,-2,-2,-3,-2c0,0,-2,-1,-2,-1c-4,1,-2,0,-7,1c-1,0,0,0,0,0Z" class="g5_6" />
<path d="M129,1120l330,0" class="g3_6" />
<path d="M129,1120l0,-126" class="g3_6" />
<path fill-rule="evenodd" d="M136,994l-7,-12l-6,12Z" class="g4_6" />
<path d="M129,1117c4,-35,1,-23,5,-39c1,-9,1,-35,8,-44c4,-16,12,-21,27,-24c5,0,9,2,14,3c1,0,4,0,5,1c8,7,-8,2,7,6c3,4,5,9,9,12c2,2,5,4,6,6c5,5,7,9,13,13c1,4,1,8,4,11c4,5,7,5,11,7c5,4,8,10,14,13c4,3,10,7,15,9c2,1,8,2,11,3c3,1,5,4,9,6c8,2,14,3,23,4c3,1,7,1,10,3c2,0,3,2,5,3c8,3,16,4,24,5c5,3,8,5,14,5" class="g3_6" />
<path d="M239,1078l0,57" class="g3_6" />
<path fill-rule="evenodd" d="M233,1135l6,12l7,-12Z" class="g4_6" />
<path fill-rule="evenodd" d="M244,1081c0,5,0,11,1,16c0,7,-6,14,1,19c4,4,14,0,22,0c12,0,25,0,38,0c2,0,4,-1,7,-1c7,0,15,0,23,0c-3,-1,-5,-2,-8,-3c-1,0,-3,-1,-5,-1c-2,0,-3,-2,-5,-2c-2,0,-3,0,-5,-1c-2,0,-7,-1,-7,-1c-3,-2,-6,-2,-9,-4c0,-1,-1,-1,-2,-2c0,0,-1,0,-2,0c-1,0,-2,-1,-2,-1c-1,0,-2,0,-3,0c-5,-2,-9,-5,-12,-8c-1,-1,-1,-2,-2,-3c0,0,0,-1,-1,-2c0,0,-5,-5,-5,-5c-2,-2,-6,-4,-6,-4c-10,2,-4,1,-16,2c-2,2,-2,2,-2,1Z" class="g6_6" />
<path d="M259,398l50,126" class="g3_6" />
<path fill-rule="evenodd" d="M304,526l10,10l1,-14Z" class="g4_6" />
<path d="M253,982l17,121" class="g3_6" />
<path fill-rule="evenodd" d="M265,1105l7,11l5,-13Z" class="g4_6" />
</g>
</svg>