<?xml version="1.0" encoding="UTF-8" standalone="no"?>
<!DOCTYPE svg PUBLIC "-//W3C//DTD SVG 1.1//EN"
"http://www.w3.org/Graphics/SVG/1.1/DTD/svg11.dtd">
<svg version="1.1" xmlns="http://www.w3.org/2000/svg" xmlns:xlink="http://www.w3.org/1999/xlink">
<defs>
<clipPath id="c0_7"><path d="M13.5,1148.5l0,-1135l908,0l0,1135Z" /></clipPath>
<style type="text/css"><![CDATA[
.g4_7{
fill: #FF00FF;
stroke: #FF00FF;
stroke-width: 2;
stroke-linecap: round;
stroke-linejoin: round;
stroke-miterlimit: 8;
}
.g2_7{
fill: none;
stroke: #000000;
stroke-width: 2;
stroke-linecap: round;
stroke-linejoin: round;
stroke-miterlimit: 8;
}
.g1_7{
fill: none;
stroke: #000000;
stroke-width: 1;
stroke-linecap: butt;
stroke-linejoin: miter;
}
.g3_7{
fill: #0000FF;
stroke: #0000FF;
stroke-width: 2;
stroke-linecap: round;
stroke-linejoin: round;
stroke-miterlimit: 8;
}
]]></style>
</defs>
<g clip-path="url(#c0_7)">
<path d="M146.5,393.5l86,0" class="g1_7" />
<path d="M146.5,940.5l94,0" class="g1_7" />
<path d="M380,466c9,0,17,1,25,0c3,0,4,0,6,-1c2,-1,3,-2,4,-3c3,-2,5,-4,7,-5c2,-1,4,-1,5,-2c8,-6,0,-2,8,-4c6,-7,13,-10,19,-18c3,-7,-1,-1,5,-6c1,-1,3,-3,4,-5c2,-6,2,-7,8,-8c2,-1,3,-2,4,-3c2,-2,4,-2,5,-3c5,-3,4,-11,9,-15c1,-1,3,-1,4,-1c5,-7,12,-10,20,-13c3,-1,5,-1,8,-2c1,-1,3,-1,3,-1c4,1,7,2,10,3c4,1,5,4,7,6c6,5,3,1,9,4c11,7,-8,-2,10,5c1,1,3,2,3,2c3,5,7,7,11,11c0,1,1,2,2,4c0,1,0,3,1,4c1,1,3,1,4,2c1,2,2,3,3,4c2,1,7,3,7,3c0,2,0,3,1,5c0,1,2,1,3,2c4,3,5,5,10,7c0,0,9,3,9,3c1,2,2,6,4,7c7,3,13,4,20,6c5,4,12,6,19,8c2,0,4,1,5,1c3,1,8,3,8,3" class="g2_7" />
<path d="M657,445l0,41" class="g2_7" />
<path d="M355,473l467,0" class="g2_7" />
<path fill-rule="evenodd" d="M662,467c6,-1,5,-2,13,0c1,1,5,3,3,3c-21,2,-21,3,-16,-3Z" class="g3_7" />
<path fill-rule="evenodd" d="M260,458c1,3,1,6,2,9c0,2,-1,5,1,6c2,1,4,-1,6,-1c7,-5,5,-2,5,-11c-1,-4,1,-8,-2,-10c-1,-2,-2,3,-4,4c-6,3,-13,3,-8,3Z" class="g3_7" />
<path d="M402,983c9,0,17,0,25,0c3,0,4,0,6,-1c2,-1,3,-3,4,-4c3,-2,5,-3,7,-5c2,0,4,-1,5,-2c8,-5,0,-2,8,-4c6,-7,13,-10,19,-18c3,-7,-1,-1,5,-6c1,-1,3,-3,4,-4c2,-7,2,-7,8,-9c2,-1,3,-2,4,-3c2,-1,4,-1,5,-2c5,-4,4,-12,9,-16c1,-1,3,-1,4,-1c5,-7,12,-10,20,-12c3,-1,5,-2,8,-3c1,0,3,-1,3,-1c4,1,7,2,10,3c4,1,5,4,7,7c6,4,3,1,9,4c11,6,-8,-2,10,5c1,0,3,1,3,1c3,5,7,7,11,12c0,1,1,2,2,4c0,1,0,2,1,3c1,1,3,2,4,3c1,1,2,3,3,3c2,2,7,3,7,3c0,2,0,4,1,5c0,1,2,2,3,3c4,2,5,4,10,6c0,0,9,3,9,3c1,2,2,6,4,8c7,2,13,3,20,5c5,4,12,6,19,8c2,1,4,1,5,2c3,0,8,3,8,3" class="g2_7" />
<path d="M528,899l0,96" class="g2_7" />
<path d="M358,980l467,0" class="g2_7" />
<path fill-rule="evenodd" d="M260,1005c1,3,1,6,2,9c0,2,-1,5,1,6c2,1,4,-1,6,-2c7,-4,5,-1,5,-10c-1,-4,1,-8,-2,-10c-1,-2,-2,3,-4,4c-6,3,-13,3,-8,3Z" class="g4_7" />
<path d="M556,899l0,96" class="g2_7" />
<path fill-rule="evenodd" d="M561,902c1,16,2,31,2,47c0,10,-4,20,-2,30c0,3,5,2,8,2c33,-1,52,-5,85,-8c5,0,18,7,16,2c-4,-9,-18,-4,-24,-9c-3,-1,-4,-3,-7,-4c-4,-2,-12,-4,-12,-4c0,-2,0,-5,-2,-7c-1,-1,-4,-1,-6,-2c-2,-1,-4,-2,-6,-4c-2,-2,-3,-5,-6,-6c-2,-2,-4,-2,-6,-3c-2,-1,-4,-3,-6,-4c-1,-3,0,-6,-2,-8c-3,-5,-12,-9,-12,-9c-1,-2,-2,-5,-4,-7c-6,-4,-14,-1,-20,-8c-1,-1,2,1,4,2Z" class="g4_7" />
<path fill-rule="evenodd" d="M524,902c-1,16,-2,31,-2,47c0,10,4,20,2,30c-1,2,-5,1,-7,2c-27,-2,-43,-5,-70,-9c-4,1,-15,7,-13,2c3,-8,14,-4,20,-8c2,-2,3,-4,5,-5c3,-2,10,-4,10,-4c1,-2,1,-5,2,-6c1,-2,3,-1,4,-2c2,-2,4,-3,6,-5c1,-1,3,-4,5,-6c1,-1,3,-1,4,-2c2,-1,4,-3,6,-4c0,-3,0,-7,1,-9c3,-4,10,-8,10,-8c1,-2,2,-5,4,-7c5,-4,11,-1,16,-8c1,-1,-2,1,-3,2Z" class="g4_7" />
</g>
</svg>