<?xml version="1.0" encoding="UTF-8" standalone="no"?>
<!DOCTYPE svg PUBLIC "-//W3C//DTD SVG 1.1//EN"
"http://www.w3.org/Graphics/SVG/1.1/DTD/svg11.dtd">
<svg version="1.1" xmlns="http://www.w3.org/2000/svg" xmlns:xlink="http://www.w3.org/1999/xlink">
<defs>
<clipPath id="c0_22"><path d="M18.5,1191.5l0,-1173l898,0l0,1173Z" /></clipPath>
<style type="text/css"><![CDATA[
.g1_22{
fill: none;
stroke: #000000;
stroke-width: 1;
stroke-linecap: butt;
stroke-linejoin: miter;
}
]]></style>
</defs>
<g clip-path="url(#c0_22)">
<path d="M128.5,169.5l0,-1" class="g1_22" />
<path d="M128.5,169.5l0,-1" class="g1_22" />
<path d="M129.5,169.5l169,0" class="g1_22" />
<path d="M298.5,169.5l0,-1" class="g1_22" />
<path d="M298.5,169.5l169,0" class="g1_22" />
<path d="M467.5,169.5l0,-1" class="g1_22" />
<path d="M467.5,169.5l169,0" class="g1_22" />
<path d="M636.5,169.5l0,-1" class="g1_22" />
<path d="M636.5,169.5l169,0" class="g1_22" />
<path d="M805.5,169.5l0,-1" class="g1_22" />
<path d="M805.5,169.5l0,-1" class="g1_22" />
<path d="M128.5,188.5l0,-19" class="g1_22" />
<path d="M298.5,188.5l0,-19" class="g1_22" />
<path d="M467.5,188.5l0,-19" class="g1_22" />
<path d="M636.5,188.5l0,-19" class="g1_22" />
<path d="M805.5,188.5l0,-19" class="g1_22" />
<path d="M128.5,189.5l0,-1" class="g1_22" />
<path d="M129.5,189.5l169,0" class="g1_22" />
<path d="M298.5,189.5l0,-1" class="g1_22" />
<path d="M298.5,189.5l169,0" class="g1_22" />
<path d="M467.5,189.5l0,-1" class="g1_22" />
<path d="M467.5,189.5l169,0" class="g1_22" />
<path d="M636.5,189.5l0,-1" class="g1_22" />
<path d="M636.5,189.5l169,0" class="g1_22" />
<path d="M805.5,189.5l0,-1" class="g1_22" />
<path d="M128.5,228.5l0,-39" class="g1_22" />
<path d="M298.5,228.5l0,-39" class="g1_22" />
<path d="M467.5,228.5l0,-39" class="g1_22" />
<path d="M636.5,228.5l0,-39" class="g1_22" />
<path d="M805.5,228.5l0,-39" class="g1_22" />
<path d="M129.5,228.5l169,0" class="g1_22" />
<path d="M298.5,228.5l169,0" class="g1_22" />
<path d="M467.5,228.5l169,0" class="g1_22" />
<path d="M636.5,228.5l169,0" class="g1_22" />
<path d="M128.5,287.5l0,-59" class="g1_22" />
<path d="M298.5,287.5l0,-59" class="g1_22" />
<path d="M467.5,287.5l0,-59" class="g1_22" />
<path d="M636.5,287.5l0,-59" class="g1_22" />
<path d="M805.5,287.5l0,-59" class="g1_22" />
<path d="M129.5,287.5l169,0" class="g1_22" />
<path d="M298.5,287.5l169,0" class="g1_22" />
<path d="M467.5,287.5l169,0" class="g1_22" />
<path d="M636.5,287.5l169,0" class="g1_22" />
<path d="M128.5,326.5l0,-39" class="g1_22" />
<path d="M298.5,326.5l0,-39" class="g1_22" />
<path d="M467.5,326.5l0,-39" class="g1_22" />
<path d="M636.5,326.5l0,-39" class="g1_22" />
<path d="M805.5,326.5l0,-39" class="g1_22" />
<path d="M128.5,327.5l0,-1" class="g1_22" />
<path d="M129.5,327.5l169,0" class="g1_22" />
<path d="M298.5,327.5l0,-1" class="g1_22" />
<path d="M298.5,327.5l169,0" class="g1_22" />
<path d="M467.5,327.5l0,-1" class="g1_22" />
<path d="M467.5,327.5l169,0" class="g1_22" />
<path d="M636.5,327.5l0,-1" class="g1_22" />
<path d="M636.5,327.5l169,0" class="g1_22" />
<path d="M805.5,327.5l0,-1" class="g1_22" />
<path d="M128.5,385.5l0,-58" class="g1_22" />
<path d="M298.5,385.5l0,-58" class="g1_22" />
<path d="M467.5,385.5l0,-58" class="g1_22" />
<path d="M636.5,385.5l0,-58" class="g1_22" />
<path d="M805.5,385.5l0,-58" class="g1_22" />
<path d="M128.5,386.5l0,-1" class="g1_22" />
<path d="M129.5,386.5l169,0" class="g1_22" />
<path d="M298.5,386.5l0,-1" class="g1_22" />
<path d="M298.5,386.5l169,0" class="g1_22" />
<path d="M467.5,386.5l0,-1" class="g1_22" />
<path d="M467.5,386.5l169,0" class="g1_22" />
<path d="M636.5,386.5l0,-1" class="g1_22" />
<path d="M636.5,386.5l169,0" class="g1_22" />
<path d="M805.5,386.5l0,-1" class="g1_22" />
<path d="M128.5,424.5l0,-38" class="g1_22" />
<path d="M298.5,424.5l0,-38" class="g1_22" />
<path d="M467.5,424.5l0,-38" class="g1_22" />
<path d="M636.5,424.5l0,-38" class="g1_22" />
<path d="M805.5,424.5l0,-38" class="g1_22" />
<path d="M128.5,425.5l0,-1" class="g1_22" />
<path d="M129.5,425.5l169,0" class="g1_22" />
<path d="M298.5,425.5l0,-1" class="g1_22" />
<path d="M298.5,425.5l169,0" class="g1_22" />
<path d="M467.5,425.5l0,-1" class="g1_22" />
<path d="M467.5,425.5l169,0" class="g1_22" />
<path d="M636.5,425.5l0,-1" class="g1_22" />
<path d="M636.5,425.5l169,0" class="g1_22" />
<path d="M805.5,425.5l0,-1" class="g1_22" />
<path d="M128.5,522.5l0,-97" class="g1_22" />
<path d="M298.5,522.5l0,-97" class="g1_22" />
<path d="M467.5,522.5l0,-97" class="g1_22" />
<path d="M636.5,522.5l0,-97" class="g1_22" />
<path d="M805.5,522.5l0,-97" class="g1_22" />
<path d="M128.5,523.5l0,-1" class="g1_22" />
<path d="M129.5,523.5l169,0" class="g1_22" />
<path d="M298.5,523.5l0,-1" class="g1_22" />
<path d="M298.5,523.5l169,0" class="g1_22" />
<path d="M467.5,523.5l0,-1" class="g1_22" />
<path d="M467.5,523.5l169,0" class="g1_22" />
<path d="M636.5,523.5l0,-1" class="g1_22" />
<path d="M636.5,523.5l169,0" class="g1_22" />
<path d="M805.5,523.5l0,-1" class="g1_22" />
<path d="M128.5,562.5l0,-39" class="g1_22" />
<path d="M298.5,562.5l0,-39" class="g1_22" />
<path d="M467.5,562.5l0,-39" class="g1_22" />
<path d="M636.5,562.5l0,-39" class="g1_22" />
<path d="M805.5,562.5l0,-39" class="g1_22" />
<path d="M128.5,563.5l0,-1" class="g1_22" />
<path d="M129.5,563.5l169,0" class="g1_22" />
<path d="M298.5,563.5l0,-1" class="g1_22" />
<path d="M298.5,563.5l169,0" class="g1_22" />
<path d="M467.5,563.5l0,-1" class="g1_22" />
<path d="M467.5,563.5l169,0" class="g1_22" />
<path d="M636.5,563.5l0,-1" class="g1_22" />
<path d="M636.5,563.5l169,0" class="g1_22" />
<path d="M805.5,563.5l0,-1" class="g1_22" />
<path d="M128.5,640.5l0,-77" class="g1_22" />
<path d="M298.5,640.5l0,-77" class="g1_22" />
<path d="M467.5,640.5l0,-77" class="g1_22" />
<path d="M636.5,640.5l0,-77" class="g1_22" />
<path d="M805.5,640.5l0,-77" class="g1_22" />
<path d="M128.5,641.5l0,-1" class="g1_22" />
<path d="M129.5,641.5l169,0" class="g1_22" />
<path d="M298.5,641.5l0,-1" class="g1_22" />
<path d="M298.5,641.5l169,0" class="g1_22" />
<path d="M467.5,641.5l0,-1" class="g1_22" />
<path d="M467.5,641.5l169,0" class="g1_22" />
<path d="M636.5,641.5l0,-1" class="g1_22" />
<path d="M636.5,641.5l169,0" class="g1_22" />
<path d="M805.5,641.5l0,-1" class="g1_22" />
<path d="M128.5,680.5l0,-39" class="g1_22" />
<path d="M298.5,680.5l0,-39" class="g1_22" />
<path d="M467.5,680.5l0,-39" class="g1_22" />
<path d="M636.5,680.5l0,-39" class="g1_22" />
<path d="M805.5,680.5l0,-39" class="g1_22" />
<path d="M128.5,681.5l0,-1" class="g1_22" />
<path d="M129.5,681.5l169,0" class="g1_22" />
<path d="M298.5,681.5l0,-1" class="g1_22" />
<path d="M298.5,681.5l169,0" class="g1_22" />
<path d="M467.5,681.5l0,-1" class="g1_22" />
<path d="M467.5,681.5l169,0" class="g1_22" />
<path d="M636.5,681.5l0,-1" class="g1_22" />
<path d="M636.5,681.5l169,0" class="g1_22" />
<path d="M805.5,681.5l0,-1" class="g1_22" />
<path d="M128.5,720.5l0,-39" class="g1_22" />
<path d="M298.5,720.5l0,-39" class="g1_22" />
<path d="M467.5,720.5l0,-39" class="g1_22" />
<path d="M636.5,720.5l0,-39" class="g1_22" />
<path d="M805.5,720.5l0,-39" class="g1_22" />
<path d="M129.5,720.5l169,0" class="g1_22" />
<path d="M298.5,720.5l169,0" class="g1_22" />
<path d="M467.5,720.5l169,0" class="g1_22" />
<path d="M636.5,720.5l169,0" class="g1_22" />
<path d="M128.5,759.5l0,-39" class="g1_22" />
<path d="M298.5,759.5l0,-39" class="g1_22" />
<path d="M467.5,759.5l0,-39" class="g1_22" />
<path d="M636.5,759.5l0,-39" class="g1_22" />
<path d="M805.5,759.5l0,-39" class="g1_22" />
<path d="M128.5,760.5l0,-1" class="g1_22" />
<path d="M129.5,760.5l169,0" class="g1_22" />
<path d="M298.5,760.5l0,-1" class="g1_22" />
<path d="M298.5,760.5l169,0" class="g1_22" />
<path d="M467.5,760.5l0,-1" class="g1_22" />
<path d="M467.5,760.5l169,0" class="g1_22" />
<path d="M636.5,760.5l0,-1" class="g1_22" />
<path d="M636.5,760.5l169,0" class="g1_22" />
<path d="M805.5,760.5l0,-1" class="g1_22" />
<path d="M128.5,818.5l0,-58" class="g1_22" />
<path d="M128.5,819.5l0,-1" class="g1_22" />
<path d="M128.5,819.5l0,-1" class="g1_22" />
<path d="M129.5,819.5l169,0" class="g1_22" />
<path d="M298.5,818.5l0,-58" class="g1_22" />
<path d="M298.5,819.5l0,-1" class="g1_22" />
<path d="M298.5,819.5l169,0" class="g1_22" />
<path d="M467.5,818.5l0,-58" class="g1_22" />
<path d="M467.5,819.5l0,-1" class="g1_22" />
<path d="M467.5,819.5l169,0" class="g1_22" />
<path d="M636.5,818.5l0,-58" class="g1_22" />
<path d="M636.5,819.5l0,-1" class="g1_22" />
<path d="M636.5,819.5l169,0" class="g1_22" />
<path d="M805.5,818.5l0,-58" class="g1_22" />
<path d="M805.5,819.5l0,-1" class="g1_22" />
<path d="M805.5,819.5l0,-1" class="g1_22" />
</g>
</svg>