<?xml version="1.0" encoding="UTF-8" standalone="no"?>
<!DOCTYPE svg PUBLIC "-//W3C//DTD SVG 1.1//EN"
"http://www.w3.org/Graphics/SVG/1.1/DTD/svg11.dtd">
<svg version="1.1" xmlns="http://www.w3.org/2000/svg" xmlns:xlink="http://www.w3.org/1999/xlink">
<defs>
<clipPath id="c0_8"><path d="M13.5,1148.5l0,-1135l908,0l0,1135Z" /></clipPath>
<style type="text/css"><![CDATA[
.g3_8{
fill: none;
stroke: #000000;
stroke-width: 2;
stroke-linecap: round;
stroke-linejoin: round;
stroke-miterlimit: 8;
}
.g1_8{
fill: none;
stroke: #BFBFBF;
stroke-width: 1;
stroke-linecap: butt;
stroke-linejoin: miter;
}
.g5_8{
}
.g2_8{
fill: none;
stroke: #000000;
stroke-width: 1;
stroke-linecap: butt;
stroke-linejoin: miter;
}
.g4_8{
fill: #00FF00;
stroke: #00FF00;
stroke-width: 2;
stroke-linecap: round;
stroke-linejoin: round;
stroke-miterlimit: 8;
}
]]></style>
</defs>
<g clip-path="url(#c0_8)">
<path d="M106.5,186.5l0,-1" class="g1_8" />
<path d="M106.5,186.5l0,-1" class="g1_8" />
<path d="M107.5,186.5l139,0" class="g1_8" />
<path d="M246.5,186.5l0,-1" class="g1_8" />
<path d="M248.5,186.5l130,0" class="g1_8" />
<path d="M378.5,186.5l0,-1" class="g1_8" />
<path d="M380.5,186.5l130,0" class="g1_8" />
<path d="M510.5,186.5l0,-1" class="g1_8" />
<path d="M512.5,186.5l130,0" class="g1_8" />
<path d="M642.5,186.5l0,-1" class="g1_8" />
<path d="M644.5,186.5l130,0" class="g1_8" />
<path d="M774.5,186.5l0,-1" class="g1_8" />
<path d="M774.5,186.5l0,-1" class="g1_8" />
<path d="M106.5,237.5l0,-51" class="g1_8" />
<path d="M246.5,237.5l0,-51" class="g1_8" />
<path d="M378.5,237.5l0,-51" class="g1_8" />
<path d="M510.5,237.5l0,-51" class="g1_8" />
<path d="M642.5,237.5l0,-51" class="g1_8" />
<path d="M774.5,237.5l0,-51" class="g1_8" />
<path d="M106.5,238.5l0,-1" class="g1_8" />
<path d="M107.5,238.5l139,0" class="g1_8" />
<path d="M246.5,238.5l0,-1" class="g1_8" />
<path d="M248.5,238.5l130,0" class="g1_8" />
<path d="M378.5,238.5l0,-1" class="g1_8" />
<path d="M380.5,238.5l130,0" class="g1_8" />
<path d="M510.5,238.5l0,-1" class="g1_8" />
<path d="M512.5,238.5l130,0" class="g1_8" />
<path d="M642.5,238.5l0,-1" class="g1_8" />
<path d="M644.5,238.5l130,0" class="g1_8" />
<path d="M774.5,238.5l0,-1" class="g1_8" />
<path d="M106.5,264.5l0,-26" class="g1_8" />
<path d="M106.5,265.5l0,-1" class="g1_8" />
<path d="M106.5,265.5l0,-1" class="g1_8" />
<path d="M107.5,265.5l139,0" class="g1_8" />
<path d="M246.5,264.5l0,-26" class="g1_8" />
<path d="M246.5,265.5l0,-1" class="g1_8" />
<path d="M248.5,265.5l130,0" class="g1_8" />
<path d="M378.5,264.5l0,-26" class="g1_8" />
<path d="M378.5,265.5l0,-1" class="g1_8" />
<path d="M380.5,265.5l130,0" class="g1_8" />
<path d="M510.5,264.5l0,-26" class="g1_8" />
<path d="M510.5,265.5l0,-1" class="g1_8" />
<path d="M512.5,265.5l130,0" class="g1_8" />
<path d="M642.5,264.5l0,-26" class="g1_8" />
<path d="M642.5,265.5l0,-1" class="g1_8" />
<path d="M644.5,265.5l130,0" class="g1_8" />
<path d="M774.5,264.5l0,-26" class="g1_8" />
<path d="M774.5,265.5l0,-1" class="g1_8" />
<path d="M774.5,265.5l0,-1" class="g1_8" />
<path d="M157.5,362.5l82,0" class="g2_8" />
<path d="M291.5,362.5l79,0" class="g2_8" />
<path d="M146.5,1047.5l94,0" class="g2_8" />
<path d="M121,589l330,0" class="g3_8" />
<path d="M129,585c4,-37,1,-24,5,-41c1,-11,1,-38,8,-48c4,-16,12,-23,27,-26c5,1,9,2,14,3c1,1,4,1,5,2c8,8,-8,2,7,6c3,5,5,10,9,14c2,2,5,4,6,6c5,5,7,10,13,14c1,4,1,8,4,12c4,4,7,4,11,7c5,5,8,10,14,14c4,3,10,7,15,9c2,1,8,2,11,4c3,1,5,4,9,5c8,3,14,4,23,5c3,1,7,2,10,3c2,1,3,3,5,3c8,4,16,5,24,6c5,4,8,5,14,5" class="g3_8" />
<path fill-rule="evenodd" d="M164,478c0,17,1,33,1,50c1,18,-8,40,1,55c7,11,23,1,35,2c20,-1,41,-1,61,-2c3,0,7,-3,10,-3c12,0,24,-1,36,-2c-4,-2,-7,-5,-11,-7c-3,-1,-6,-2,-8,-3c-3,-2,-6,-5,-9,-6c-2,-1,-4,-1,-7,-1c-4,-2,-11,-5,-11,-5c-5,-6,-10,-6,-14,-12c-1,-1,-2,-3,-3,-4c-1,-1,-3,-1,-4,-2c-1,-1,-2,-2,-4,-3c-1,-1,-2,-1,-4,-2c-8,-5,-15,-12,-19,-22c-1,-3,-2,-5,-3,-8c0,-2,0,-4,-1,-6c-1,-2,-8,-15,-9,-16c-2,-4,-9,-11,-9,-11c-15,5,-7,3,-26,5c-3,5,-2,6,-2,3Z" class="g4_8" />
<path d="M245,413l25,153" class="g3_8" />
<path fill-rule="evenodd" d="M265,568l7,11l5,-13Z" class="g5_8" />
<path d="M157,484l0,112" class="g3_8" />
<path fill-rule="evenodd" d="M151,596l6,12l6,-12Z" class="g5_8" />
<path d="M129,594l0,-139" class="g3_8" />
<path fill-rule="evenodd" d="M136,455l-7,-12l-6,12Z" class="g5_8" />
<path fill-rule="evenodd" d="M287,572c10,6,24,8,36,10c7,-1,11,-1,18,-1c4,2,8,1,11,4c0,1,0,2,0,3c-2,2,-9,0,-10,0c-6,-2,-10,-1,-19,-2c-11,1,-26,2,-38,1c-1,0,-1,0,-2,-1c-14,-8,7,-3,-28,-4c-1,-1,-2,-1,-2,-2c0,-5,1,-4,2,-7c1,-1,0,-1,1,-2c1,-1,2,-1,2,-1c1,-1,1,-3,2,-3c5,-2,11,-1,16,-1c15,-4,26,3,39,5c1,1,3,1,5,2c3,3,-1,3,3,4c2,0,11,1,12,1c3,2,5,3,8,4c1,1,2,2,3,3c1,0,6,1,6,1c5,8,13,4,-13,3c-6,-2,-4,-1,-8,-3c-14,0,-29,3,-42,0c-3,-1,-6,-6,-8,-9c-2,-4,-2,-5,2,-8c2,1,5,0,7,1c1,0,0,2,-1,2c-1,1,-2,0,-2,0Z" class="g4_8" />
<path fill-rule="evenodd" d="M282,578c11,17,44,8,54,8c1,0,2,1,3,1c2,0,5,1,5,1c2,0,5,0,7,0c2,-1,2,-4,1,-5c-2,-2,-5,-2,-7,-2c-8,0,-15,0,-22,0c-1,-1,-2,-1,-3,-1c-6,-1,-36,-3,-38,-2Z" class="g4_8" />
</g>
</svg>