<?xml version="1.0" encoding="UTF-8" standalone="no"?>
<!DOCTYPE svg PUBLIC "-//W3C//DTD SVG 1.1//EN"
"http://www.w3.org/Graphics/SVG/1.1/DTD/svg11.dtd">
<svg version="1.1" xmlns="http://www.w3.org/2000/svg" xmlns:xlink="http://www.w3.org/1999/xlink">
<defs>
<clipPath id="c0_4"><path d="M18.5,1191.5l0,-1173l898,0l0,1173Z" /></clipPath>
<style type="text/css"><![CDATA[
.g2_4{
fill: #FFFFFF;
stroke: #000000;
stroke-width: 2;
stroke-linecap: butt;
stroke-linejoin: miter;
}
.g3_4{
fill: none;
stroke: #000000;
stroke-width: 2;
stroke-linecap: butt;
stroke-linejoin: miter;
}
.g4_4{
fill: none;
stroke: #000000;
stroke-width: 2;
stroke-linecap: round;
stroke-linejoin: round;
stroke-miterlimit: 8;
}
.g1_4{
fill: none;
stroke: #000000;
stroke-width: 1;
stroke-linecap: butt;
stroke-linejoin: miter;
}
.g6_4{
fill: #FFFFFF;
stroke: #FFFFFF;
stroke-width: 2;
stroke-linecap: round;
stroke-linejoin: round;
stroke-miterlimit: 8;
}
.g5_4{
stroke: #000000;
stroke-width: 2;
stroke-linecap: round;
stroke-linejoin: round;
stroke-miterlimit: 8;
}
]]></style>
</defs>
<image x="137" y="226" width="749" height="294" xlink:href="img/1.png" />
<g clip-path="url(#c0_4)">
<path d="M316.5,691.5l364,0" class="g1_4" />
<path d="M446,787c0,3,-3,6,-7,6c-4,0,-7,-3,-7,-6c0,-4,3,-7,7,-7c4,0,7,3,7,7Z" class="g2_4" />
<path d="M473,787c0,3,-3,6,-7,6c-4,0,-7,-3,-7,-6c0,-4,3,-7,7,-7c4,0,7,3,7,7Z" class="g2_4" />
<path d="M514,828c0,4,-3,7,-6,7c-4,0,-7,-3,-7,-7c0,-4,3,-7,7,-7c3,0,6,3,6,7Z" class="g2_4" />
<path d="M501,883c0,4,-3,7,-7,7c-4,0,-7,-3,-7,-7c0,-4,3,-7,7,-7c4,0,7,3,7,7Z" class="g2_4" />
<path d="M501,800c0,4,-3,7,-7,7c-4,0,-7,-3,-7,-7c0,-4,3,-7,7,-7c4,0,7,3,7,7Z" class="g2_4" />
<path d="M514,855c0,4,-3,7,-6,7c-4,0,-7,-3,-7,-7c0,-3,3,-6,7,-6c3,0,6,3,6,6Z" class="g2_4" />
<path d="M418,800c0,4,-3,7,-7,7c-4,0,-7,-3,-7,-7c0,-4,3,-7,7,-7c4,0,7,3,7,7Z" class="g2_4" />
<path d="M404,828c0,4,-3,7,-6,7c-4,0,-7,-3,-7,-7c0,-4,3,-7,7,-7c3,0,6,3,6,7Z" class="g2_4" />
<path d="M404,855c0,4,-3,7,-6,7c-4,0,-7,-3,-7,-7c0,-3,3,-6,7,-6c3,0,6,3,6,6Z" class="g2_4" />
<path d="M423,883c0,4,-3,7,-7,7c-4,0,-7,-3,-7,-7c0,-4,3,-7,7,-7c4,0,7,3,7,7Z" class="g2_4" />
<path d="M446,897c0,4,-3,7,-7,7c-4,0,-7,-3,-7,-7c0,-4,3,-7,7,-7c4,0,7,3,7,7Z" class="g2_4" />
<path d="M473,897c0,4,-3,7,-7,7c-4,0,-7,-3,-7,-7c0,-4,3,-7,7,-7c4,0,7,3,7,7Z" class="g2_4" />
<path d="M542,841c0,50,-40,90,-89,90c-50,0,-90,-40,-90,-90c0,-49,40,-89,90,-89c49,0,89,40,89,89Z" class="g3_4" />
<path d="M556,890c7,-13,13,-25,13,-41c0,-17,-11,-46,-13,-55" class="g4_4" />
<path fill-rule="evenodd" d="M550,781l0,31l24,-13Z" class="g5_4" />
<path d="M459,842c0,4,-3,7,-6,7c-4,0,-7,-3,-7,-7c0,-4,3,-7,7,-7c3,0,6,3,6,7Z" class="g2_4" />
<path d="M398,828c-17,0,-32,0,-49,0" class="g4_4" />
<path d="M397,855c-16,0,-32,0,-48,0" class="g4_4" />
<path d="M349,828c0,11,0,22,0,34" class="g4_4" />
<path d="M446,848l-28,28" class="g4_4" />
<path fill-rule="evenodd" d="M341,857c2,0,17,-3,19,1c5,8,-3,13,-8,15c-4,0,-7,0,-10,-1c-6,-3,-2,-12,-1,-15Z" class="g6_4" />
<path fill-rule="evenodd" d="M417,873c0,2,0,3,1,4c2,0,1,0,3,-1c1,0,1,0,1,0c-1,0,-1,-1,-2,-1c0,-1,-2,-2,-3,-2Z" class="g5_4" />
<path fill-rule="evenodd" d="M443,847c1,1,3,2,4,4c0,-1,1,-5,0,-5c-1,0,-3,0,-4,1Z" class="g5_4" />
<path fill-rule="evenodd" d="M347,831c1,-2,1,-3,2,-4c0,0,2,4,2,4c-2,0,-3,0,-5,0c0,0,1,0,1,0Z" class="g5_4" />
<path fill-rule="evenodd" d="M347,852c0,1,1,3,1,4c1,-1,1,-2,2,-3c-2,-2,-1,-1,-3,-1Z" class="g5_4" />
</g>
</svg>