<?xml version="1.0" encoding="UTF-8" standalone="no"?>
<!DOCTYPE svg PUBLIC "-//W3C//DTD SVG 1.1//EN"
"http://www.w3.org/Graphics/SVG/1.1/DTD/svg11.dtd">
<svg version="1.1" xmlns="http://www.w3.org/2000/svg" xmlns:xlink="http://www.w3.org/1999/xlink">
<defs>
<clipPath id="c0_16"><path d="M18.5,1191.5l0,-1173l898,0l0,1173Z" /></clipPath>
<style type="text/css"><![CDATA[
.g1_16{
fill: none;
stroke: #FFFFFF;
stroke-width: 1;
stroke-linecap: butt;
stroke-linejoin: miter;
}
.g2_16{
fill: none;
stroke: #000000;
stroke-width: 1;
stroke-linecap: butt;
stroke-linejoin: miter;
}
]]></style>
</defs>
<g clip-path="url(#c0_16)">
<path d="M423.5,126.5l14,0" class="g1_16" />
<path d="M437.5,126.5l160,0" class="g2_16" />
<path d="M597.5,126.5l8,0" class="g1_16" />
<path d="M429.5,165.5l167,0" class="g2_16" />
<path d="M596.5,165.5l8,0" class="g1_16" />
<path d="M129.5,401.5l225,0" class="g2_16" />
<path d="M355.5,401.5l225,0" class="g2_16" />
<path d="M580.5,401.5l225,0" class="g2_16" />
<path d="M128.5,421.5l0,-20" class="g2_16" />
<path d="M354.5,421.5l0,-20" class="g2_16" />
<path d="M580.5,421.5l0,-20" class="g2_16" />
<path d="M805.5,421.5l0,-20" class="g2_16" />
<path d="M128.5,422.5l0,-1" class="g2_16" />
<path d="M129.5,422.5l225,0" class="g2_16" />
<path d="M354.5,422.5l0,-1" class="g2_16" />
<path d="M355.5,422.5l225,0" class="g2_16" />
<path d="M580.5,422.5l0,-1" class="g2_16" />
<path d="M580.5,422.5l225,0" class="g2_16" />
<path d="M805.5,422.5l0,-1" class="g2_16" />
<path d="M128.5,441.5l0,-19" class="g2_16" />
<path d="M354.5,441.5l0,-19" class="g2_16" />
<path d="M580.5,441.5l0,-19" class="g2_16" />
<path d="M805.5,441.5l0,-19" class="g2_16" />
<path d="M128.5,442.5l0,-1" class="g2_16" />
<path d="M129.5,442.5l225,0" class="g2_16" />
<path d="M354.5,442.5l0,-1" class="g2_16" />
<path d="M355.5,442.5l225,0" class="g2_16" />
<path d="M580.5,442.5l0,-1" class="g2_16" />
<path d="M580.5,442.5l225,0" class="g2_16" />
<path d="M805.5,442.5l0,-1" class="g2_16" />
<path d="M128.5,461.5l0,-19" class="g2_16" />
<path d="M354.5,461.5l0,-19" class="g2_16" />
<path d="M580.5,461.5l0,-19" class="g2_16" />
<path d="M805.5,461.5l0,-19" class="g2_16" />
<path d="M128.5,462.5l0,-1" class="g2_16" />
<path d="M129.5,462.5l225,0" class="g2_16" />
<path d="M354.5,462.5l0,-1" class="g2_16" />
<path d="M355.5,462.5l225,0" class="g2_16" />
<path d="M580.5,462.5l0,-1" class="g2_16" />
<path d="M580.5,462.5l225,0" class="g2_16" />
<path d="M805.5,462.5l0,-1" class="g2_16" />
<path d="M128.5,481.5l0,-19" class="g2_16" />
<path d="M354.5,481.5l0,-19" class="g2_16" />
<path d="M580.5,481.5l0,-19" class="g2_16" />
<path d="M805.5,481.5l0,-19" class="g2_16" />
<path d="M128.5,482.5l0,-1" class="g2_16" />
<path d="M129.5,482.5l225,0" class="g2_16" />
<path d="M354.5,482.5l0,-1" class="g2_16" />
<path d="M355.5,482.5l225,0" class="g2_16" />
<path d="M580.5,482.5l0,-1" class="g2_16" />
<path d="M580.5,482.5l225,0" class="g2_16" />
<path d="M805.5,482.5l0,-1" class="g2_16" />
<path d="M128.5,501.5l0,-19" class="g2_16" />
<path d="M354.5,501.5l0,-19" class="g2_16" />
<path d="M580.5,501.5l0,-19" class="g2_16" />
<path d="M805.5,501.5l0,-19" class="g2_16" />
<path d="M128.5,502.5l0,-1" class="g2_16" />
<path d="M129.5,502.5l225,0" class="g2_16" />
<path d="M354.5,502.5l0,-1" class="g2_16" />
<path d="M355.5,502.5l225,0" class="g2_16" />
<path d="M580.5,502.5l0,-1" class="g2_16" />
<path d="M580.5,502.5l225,0" class="g2_16" />
<path d="M805.5,502.5l0,-1" class="g2_16" />
<path d="M128.5,522.5l0,-20" class="g2_16" />
<path d="M354.5,522.5l0,-20" class="g2_16" />
<path d="M580.5,522.5l0,-20" class="g2_16" />
<path d="M805.5,522.5l0,-20" class="g2_16" />
<path d="M129.5,522.5l225,0" class="g2_16" />
<path d="M355.5,522.5l225,0" class="g2_16" />
<path d="M580.5,522.5l225,0" class="g2_16" />
<path d="M128.5,542.5l0,-20" class="g2_16" />
<path d="M354.5,542.5l0,-20" class="g2_16" />
<path d="M580.5,542.5l0,-20" class="g2_16" />
<path d="M805.5,542.5l0,-20" class="g2_16" />
<path d="M128.5,543.5l0,-1" class="g2_16" />
<path d="M129.5,543.5l225,0" class="g2_16" />
<path d="M354.5,543.5l0,-1" class="g2_16" />
<path d="M355.5,543.5l225,0" class="g2_16" />
<path d="M580.5,543.5l0,-1" class="g2_16" />
<path d="M580.5,543.5l225,0" class="g2_16" />
<path d="M805.5,543.5l0,-1" class="g2_16" />
<path d="M128.5,562.5l0,-19" class="g2_16" />
<path d="M354.5,562.5l0,-19" class="g2_16" />
<path d="M580.5,562.5l0,-19" class="g2_16" />
<path d="M805.5,562.5l0,-19" class="g2_16" />
<path d="M128.5,563.5l0,-1" class="g2_16" />
<path d="M129.5,563.5l225,0" class="g2_16" />
<path d="M354.5,563.5l0,-1" class="g2_16" />
<path d="M355.5,563.5l225,0" class="g2_16" />
<path d="M580.5,563.5l0,-1" class="g2_16" />
<path d="M580.5,563.5l225,0" class="g2_16" />
<path d="M805.5,563.5l0,-1" class="g2_16" />
<path d="M128.5,582.5l0,-19" class="g2_16" />
<path d="M128.5,583.5l0,-1" class="g2_16" />
<path d="M128.5,583.5l0,-1" class="g2_16" />
<path d="M129.5,583.5l225,0" class="g2_16" />
<path d="M354.5,582.5l0,-19" class="g2_16" />
<path d="M354.5,583.5l0,-1" class="g2_16" />
<path d="M355.5,583.5l225,0" class="g2_16" />
<path d="M580.5,582.5l0,-19" class="g2_16" />
<path d="M580.5,583.5l0,-1" class="g2_16" />
<path d="M580.5,583.5l225,0" class="g2_16" />
<path d="M805.5,582.5l0,-19" class="g2_16" />
<path d="M805.5,583.5l0,-1" class="g2_16" />
<path d="M805.5,583.5l0,-1" class="g2_16" />
<path d="M406.5,736.5l365,0" class="g2_16" />
<path d="M128.5,778.5l0,-1" class="g2_16" />
<path d="M128.5,778.5l0,-1" class="g2_16" />
<path d="M129.5,778.5l135,0" class="g2_16" />
<path d="M264.5,778.5l0,-1" class="g2_16" />
<path d="M264.5,778.5l135,0" class="g2_16" />
<path d="M399.5,778.5l0,-1" class="g2_16" />
<path d="M400.5,778.5l134,0" class="g2_16" />
<path d="M534.5,778.5l0,-1" class="g2_16" />
<path d="M535.5,778.5l134,0" class="g2_16" />
<path d="M669.5,778.5l0,-1" class="g2_16" />
<path d="M670.5,778.5l135,0" class="g2_16" />
<path d="M805.5,778.5l0,-1" class="g2_16" />
<path d="M805.5,778.5l0,-1" class="g2_16" />
<path d="M128.5,816.5l0,-38" class="g2_16" />
<path d="M264.5,816.5l0,-38" class="g2_16" />
<path d="M399.5,816.5l0,-38" class="g2_16" />
<path d="M534.5,816.5l0,-38" class="g2_16" />
<path d="M669.5,816.5l0,-38" class="g2_16" />
<path d="M805.5,816.5l0,-38" class="g2_16" />
<path d="M128.5,817.5l0,-1" class="g2_16" />
<path d="M129.5,817.5l135,0" class="g2_16" />
<path d="M264.5,817.5l0,-1" class="g2_16" />
<path d="M264.5,817.5l135,0" class="g2_16" />
<path d="M399.5,817.5l0,-1" class="g2_16" />
<path d="M400.5,817.5l134,0" class="g2_16" />
<path d="M534.5,817.5l0,-1" class="g2_16" />
<path d="M535.5,817.5l134,0" class="g2_16" />
<path d="M669.5,817.5l0,-1" class="g2_16" />
<path d="M670.5,817.5l135,0" class="g2_16" />
<path d="M805.5,817.5l0,-1" class="g2_16" />
<path d="M128.5,837.5l0,-20" class="g2_16" />
<path d="M264.5,837.5l0,-20" class="g2_16" />
<path d="M399.5,837.5l0,-20" class="g2_16" />
<path d="M534.5,837.5l0,-20" class="g2_16" />
<path d="M669.5,837.5l0,-20" class="g2_16" />
<path d="M805.5,837.5l0,-20" class="g2_16" />
<path d="M129.5,837.5l135,0" class="g2_16" />
<path d="M264.5,837.5l135,0" class="g2_16" />
<path d="M400.5,837.5l134,0" class="g2_16" />
<path d="M535.5,837.5l134,0" class="g2_16" />
<path d="M670.5,837.5l135,0" class="g2_16" />
<path d="M128.5,857.5l0,-20" class="g2_16" />
<path d="M264.5,857.5l0,-20" class="g2_16" />
<path d="M399.5,857.5l0,-20" class="g2_16" />
<path d="M534.5,857.5l0,-20" class="g2_16" />
<path d="M669.5,857.5l0,-20" class="g2_16" />
<path d="M805.5,857.5l0,-20" class="g2_16" />
<path d="M129.5,857.5l135,0" class="g2_16" />
<path d="M264.5,857.5l135,0" class="g2_16" />
<path d="M400.5,857.5l134,0" class="g2_16" />
<path d="M535.5,857.5l134,0" class="g2_16" />
<path d="M670.5,857.5l135,0" class="g2_16" />
<path d="M128.5,877.5l0,-20" class="g2_16" />
<path d="M264.5,877.5l0,-20" class="g2_16" />
<path d="M399.5,877.5l0,-20" class="g2_16" />
<path d="M534.5,877.5l0,-20" class="g2_16" />
<path d="M669.5,877.5l0,-20" class="g2_16" />
<path d="M805.5,877.5l0,-20" class="g2_16" />
<path d="M128.5,878.5l0,-1" class="g2_16" />
<path d="M129.5,878.5l135,0" class="g2_16" />
<path d="M264.5,878.5l0,-1" class="g2_16" />
<path d="M264.5,878.5l135,0" class="g2_16" />
<path d="M399.5,878.5l0,-1" class="g2_16" />
<path d="M400.5,878.5l134,0" class="g2_16" />
<path d="M534.5,878.5l0,-1" class="g2_16" />
<path d="M535.5,878.5l134,0" class="g2_16" />
<path d="M669.5,878.5l0,-1" class="g2_16" />
<path d="M670.5,878.5l135,0" class="g2_16" />
<path d="M805.5,878.5l0,-1" class="g2_16" />
<path d="M128.5,897.5l0,-19" class="g2_16" />
<path d="M264.5,897.5l0,-19" class="g2_16" />
<path d="M399.5,897.5l0,-19" class="g2_16" />
<path d="M534.5,897.5l0,-19" class="g2_16" />
<path d="M669.5,897.5l0,-19" class="g2_16" />
<path d="M805.5,897.5l0,-19" class="g2_16" />
<path d="M128.5,898.5l0,-1" class="g2_16" />
<path d="M129.5,898.5l135,0" class="g2_16" />
<path d="M264.5,898.5l0,-1" class="g2_16" />
<path d="M264.5,898.5l135,0" class="g2_16" />
<path d="M399.5,898.5l0,-1" class="g2_16" />
<path d="M400.5,898.5l134,0" class="g2_16" />
<path d="M534.5,898.5l0,-1" class="g2_16" />
<path d="M535.5,898.5l134,0" class="g2_16" />
<path d="M669.5,898.5l0,-1" class="g2_16" />
<path d="M670.5,898.5l135,0" class="g2_16" />
<path d="M805.5,898.5l0,-1" class="g2_16" />
<path d="M128.5,917.5l0,-19" class="g2_16" />
<path d="M264.5,917.5l0,-19" class="g2_16" />
<path d="M399.5,917.5l0,-19" class="g2_16" />
<path d="M534.5,917.5l0,-19" class="g2_16" />
<path d="M669.5,917.5l0,-19" class="g2_16" />
<path d="M805.5,917.5l0,-19" class="g2_16" />
<path d="M128.5,918.5l0,-1" class="g2_16" />
<path d="M129.5,918.5l135,0" class="g2_16" />
<path d="M264.5,918.5l0,-1" class="g2_16" />
<path d="M264.5,918.5l135,0" class="g2_16" />
<path d="M399.5,918.5l0,-1" class="g2_16" />
<path d="M400.5,918.5l134,0" class="g2_16" />
<path d="M534.5,918.5l0,-1" class="g2_16" />
<path d="M535.5,918.5l134,0" class="g2_16" />
<path d="M669.5,918.5l0,-1" class="g2_16" />
<path d="M670.5,918.5l135,0" class="g2_16" />
<path d="M805.5,918.5l0,-1" class="g2_16" />
<path d="M128.5,937.5l0,-19" class="g2_16" />
<path d="M264.5,937.5l0,-19" class="g2_16" />
<path d="M399.5,937.5l0,-19" class="g2_16" />
<path d="M534.5,937.5l0,-19" class="g2_16" />
<path d="M669.5,937.5l0,-19" class="g2_16" />
<path d="M805.5,937.5l0,-19" class="g2_16" />
<path d="M128.5,938.5l0,-1" class="g2_16" />
<path d="M129.5,938.5l135,0" class="g2_16" />
<path d="M264.5,938.5l0,-1" class="g2_16" />
<path d="M264.5,938.5l135,0" class="g2_16" />
<path d="M399.5,938.5l0,-1" class="g2_16" />
<path d="M400.5,938.5l134,0" class="g2_16" />
<path d="M534.5,938.5l0,-1" class="g2_16" />
<path d="M535.5,938.5l134,0" class="g2_16" />
<path d="M669.5,938.5l0,-1" class="g2_16" />
<path d="M670.5,938.5l135,0" class="g2_16" />
<path d="M805.5,938.5l0,-1" class="g2_16" />
<path d="M128.5,958.5l0,-20" class="g2_16" />
<path d="M264.5,958.5l0,-20" class="g2_16" />
<path d="M399.5,958.5l0,-20" class="g2_16" />
<path d="M534.5,958.5l0,-20" class="g2_16" />
<path d="M669.5,958.5l0,-20" class="g2_16" />
<path d="M805.5,958.5l0,-20" class="g2_16" />
<path d="M129.5,958.5l135,0" class="g2_16" />
<path d="M264.5,958.5l135,0" class="g2_16" />
<path d="M400.5,958.5l134,0" class="g2_16" />
<path d="M535.5,958.5l134,0" class="g2_16" />
<path d="M670.5,958.5l135,0" class="g2_16" />
<path d="M128.5,978.5l0,-20" class="g2_16" />
<path d="M129.5,978.5l135,0" class="g2_16" />
<path d="M264.5,978.5l0,-20" class="g2_16" />
<path d="M264.5,978.5l135,0" class="g2_16" />
<path d="M399.5,978.5l0,-20" class="g2_16" />
<path d="M400.5,978.5l134,0" class="g2_16" />
<path d="M534.5,978.5l0,-20" class="g2_16" />
<path d="M535.5,978.5l134,0" class="g2_16" />
<path d="M669.5,978.5l0,-20" class="g2_16" />
<path d="M670.5,978.5l135,0" class="g2_16" />
<path d="M805.5,978.5l0,-20" class="g2_16" />
</g>
</svg>