<?xml version="1.0" encoding="UTF-8" standalone="no"?>
<!DOCTYPE svg PUBLIC "-//W3C//DTD SVG 1.1//EN"
"http://www.w3.org/Graphics/SVG/1.1/DTD/svg11.dtd">
<svg version="1.1" xmlns="http://www.w3.org/2000/svg" xmlns:xlink="http://www.w3.org/1999/xlink">
<defs>
<clipPath id="c0_5"><path d="M13.5,1148.5l0,-1135l908,0l0,1135Z" /></clipPath>
<style type="text/css"><![CDATA[
.g1_5{
fill: none;
stroke: #BFBFBF;
stroke-width: 1;
stroke-linecap: butt;
stroke-linejoin: miter;
}
]]></style>
</defs>
<g clip-path="url(#c0_5)">
<path d="M106.5,127.5l0,-2" class="g1_5" />
<path d="M106.5,127.5l0,-2" class="g1_5" />
<path d="M107.5,127.5l139,0" class="g1_5" />
<path d="M246.5,127.5l0,-2" class="g1_5" />
<path d="M248.5,127.5l130,0" class="g1_5" />
<path d="M378.5,127.5l0,-2" class="g1_5" />
<path d="M380.5,127.5l130,0" class="g1_5" />
<path d="M510.5,127.5l0,-2" class="g1_5" />
<path d="M512.5,127.5l130,0" class="g1_5" />
<path d="M642.5,127.5l0,-2" class="g1_5" />
<path d="M644.5,127.5l130,0" class="g1_5" />
<path d="M774.5,127.5l0,-2" class="g1_5" />
<path d="M774.5,127.5l0,-2" class="g1_5" />
<path d="M106.5,158.5l0,-31" class="g1_5" />
<path d="M246.5,158.5l0,-31" class="g1_5" />
<path d="M378.5,158.5l0,-31" class="g1_5" />
<path d="M510.5,158.5l0,-31" class="g1_5" />
<path d="M642.5,158.5l0,-31" class="g1_5" />
<path d="M774.5,158.5l0,-31" class="g1_5" />
<path d="M106.5,160.5l0,-2" class="g1_5" />
<path d="M107.5,160.5l139,0" class="g1_5" />
<path d="M246.5,160.5l0,-2" class="g1_5" />
<path d="M248.5,160.5l130,0" class="g1_5" />
<path d="M378.5,160.5l0,-2" class="g1_5" />
<path d="M380.5,160.5l130,0" class="g1_5" />
<path d="M510.5,160.5l0,-2" class="g1_5" />
<path d="M512.5,160.5l130,0" class="g1_5" />
<path d="M642.5,160.5l0,-2" class="g1_5" />
<path d="M644.5,160.5l130,0" class="g1_5" />
<path d="M774.5,160.5l0,-2" class="g1_5" />
<path d="M106.5,176.5l0,-16" class="g1_5" />
<path d="M246.5,176.5l0,-16" class="g1_5" />
<path d="M378.5,176.5l0,-16" class="g1_5" />
<path d="M510.5,176.5l0,-16" class="g1_5" />
<path d="M642.5,176.5l0,-16" class="g1_5" />
<path d="M774.5,176.5l0,-16" class="g1_5" />
<path d="M106.5,178.5l0,-2" class="g1_5" />
<path d="M107.5,178.5l139,0" class="g1_5" />
<path d="M246.5,178.5l0,-2" class="g1_5" />
<path d="M248.5,178.5l130,0" class="g1_5" />
<path d="M378.5,178.5l0,-2" class="g1_5" />
<path d="M380.5,178.5l130,0" class="g1_5" />
<path d="M510.5,178.5l0,-2" class="g1_5" />
<path d="M512.5,178.5l130,0" class="g1_5" />
<path d="M642.5,178.5l0,-2" class="g1_5" />
<path d="M644.5,178.5l130,0" class="g1_5" />
<path d="M774.5,178.5l0,-2" class="g1_5" />
<path d="M106.5,193.5l0,-15" class="g1_5" />
<path d="M106.5,195.5l0,-2" class="g1_5" />
<path d="M106.5,195.5l0,-2" class="g1_5" />
<path d="M107.5,195.5l139,0" class="g1_5" />
<path d="M246.5,193.5l0,-15" class="g1_5" />
<path d="M246.5,195.5l0,-2" class="g1_5" />
<path d="M248.5,195.5l130,0" class="g1_5" />
<path d="M378.5,193.5l0,-15" class="g1_5" />
<path d="M378.5,195.5l0,-2" class="g1_5" />
<path d="M380.5,195.5l130,0" class="g1_5" />
<path d="M510.5,193.5l0,-15" class="g1_5" />
<path d="M510.5,195.5l0,-2" class="g1_5" />
<path d="M512.5,195.5l130,0" class="g1_5" />
<path d="M642.5,193.5l0,-15" class="g1_5" />
<path d="M642.5,195.5l0,-2" class="g1_5" />
<path d="M644.5,195.5l130,0" class="g1_5" />
<path d="M774.5,193.5l0,-15" class="g1_5" />
<path d="M774.5,195.5l0,-2" class="g1_5" />
<path d="M774.5,195.5l0,-2" class="g1_5" />
<path d="M106.5,244.5l0,-2" class="g1_5" />
<path d="M106.5,244.5l0,-2" class="g1_5" />
<path d="M107.5,244.5l227,0" class="g1_5" />
<path d="M334.5,244.5l0,-2" class="g1_5" />
<path d="M336.5,244.5l218,0" class="g1_5" />
<path d="M554.5,244.5l0,-2" class="g1_5" />
<path d="M556.5,244.5l218,0" class="g1_5" />
<path d="M774.5,244.5l0,-2" class="g1_5" />
<path d="M774.5,244.5l0,-2" class="g1_5" />
<path d="M106.5,260.5l0,-16" class="g1_5" />
<path d="M334.5,260.5l0,-16" class="g1_5" />
<path d="M554.5,260.5l0,-16" class="g1_5" />
<path d="M774.5,260.5l0,-16" class="g1_5" />
<path d="M106.5,261.5l0,-1" class="g1_5" />
<path d="M107.5,261.5l227,0" class="g1_5" />
<path d="M334.5,261.5l0,-1" class="g1_5" />
<path d="M336.5,261.5l218,0" class="g1_5" />
<path d="M554.5,261.5l0,-1" class="g1_5" />
<path d="M556.5,261.5l218,0" class="g1_5" />
<path d="M774.5,261.5l0,-1" class="g1_5" />
<path d="M106.5,277.5l0,-16" class="g1_5" />
<path d="M334.5,277.5l0,-16" class="g1_5" />
<path d="M554.5,277.5l0,-16" class="g1_5" />
<path d="M774.5,277.5l0,-16" class="g1_5" />
<path d="M106.5,279.5l0,-2" class="g1_5" />
<path d="M107.5,279.5l227,0" class="g1_5" />
<path d="M334.5,279.5l0,-2" class="g1_5" />
<path d="M336.5,279.5l218,0" class="g1_5" />
<path d="M554.5,279.5l0,-2" class="g1_5" />
<path d="M556.5,279.5l218,0" class="g1_5" />
<path d="M774.5,279.5l0,-2" class="g1_5" />
<path d="M106.5,295.5l0,-16" class="g1_5" />
<path d="M106.5,296.5l0,-1" class="g1_5" />
<path d="M106.5,296.5l0,-1" class="g1_5" />
<path d="M107.5,296.5l227,0" class="g1_5" />
<path d="M334.5,295.5l0,-16" class="g1_5" />
<path d="M334.5,296.5l0,-1" class="g1_5" />
<path d="M336.5,296.5l218,0" class="g1_5" />
<path d="M554.5,295.5l0,-16" class="g1_5" />
<path d="M554.5,296.5l0,-1" class="g1_5" />
<path d="M556.5,296.5l218,0" class="g1_5" />
<path d="M774.5,295.5l0,-16" class="g1_5" />
<path d="M774.5,296.5l0,-1" class="g1_5" />
<path d="M774.5,296.5l0,-1" class="g1_5" />
<path d="M106.5,329.5l0,-1" class="g1_5" />
<path d="M106.5,329.5l0,-1" class="g1_5" />
<path d="M107.5,329.5l227,0" class="g1_5" />
<path d="M334.5,329.5l0,-1" class="g1_5" />
<path d="M336.5,329.5l218,0" class="g1_5" />
<path d="M554.5,329.5l0,-1" class="g1_5" />
<path d="M556.5,329.5l218,0" class="g1_5" />
<path d="M774.5,329.5l0,-1" class="g1_5" />
<path d="M774.5,329.5l0,-1" class="g1_5" />
<path d="M106.5,345.5l0,-16" class="g1_5" />
<path d="M334.5,345.5l0,-16" class="g1_5" />
<path d="M554.5,345.5l0,-16" class="g1_5" />
<path d="M774.5,345.5l0,-16" class="g1_5" />
<path d="M106.5,347.5l0,-2" class="g1_5" />
<path d="M107.5,347.5l227,0" class="g1_5" />
<path d="M334.5,347.5l0,-2" class="g1_5" />
<path d="M336.5,347.5l218,0" class="g1_5" />
<path d="M554.5,347.5l0,-2" class="g1_5" />
<path d="M556.5,347.5l218,0" class="g1_5" />
<path d="M774.5,347.5l0,-2" class="g1_5" />
<path d="M106.5,363.5l0,-16" class="g1_5" />
<path d="M334.5,363.5l0,-16" class="g1_5" />
<path d="M554.5,363.5l0,-16" class="g1_5" />
<path d="M774.5,363.5l0,-16" class="g1_5" />
<path d="M106.5,364.5l0,-1" class="g1_5" />
<path d="M107.5,364.5l227,0" class="g1_5" />
<path d="M334.5,364.5l0,-1" class="g1_5" />
<path d="M336.5,364.5l218,0" class="g1_5" />
<path d="M554.5,364.5l0,-1" class="g1_5" />
<path d="M556.5,364.5l218,0" class="g1_5" />
<path d="M774.5,364.5l0,-1" class="g1_5" />
<path d="M106.5,380.5l0,-16" class="g1_5" />
<path d="M334.5,380.5l0,-16" class="g1_5" />
<path d="M554.5,380.5l0,-16" class="g1_5" />
<path d="M774.5,380.5l0,-16" class="g1_5" />
<path d="M106.5,382.5l0,-2" class="g1_5" />
<path d="M107.5,382.5l227,0" class="g1_5" />
<path d="M334.5,382.5l0,-2" class="g1_5" />
<path d="M336.5,382.5l218,0" class="g1_5" />
<path d="M554.5,382.5l0,-2" class="g1_5" />
<path d="M556.5,382.5l218,0" class="g1_5" />
<path d="M774.5,382.5l0,-2" class="g1_5" />
<path d="M106.5,398.5l0,-16" class="g1_5" />
<path d="M334.5,398.5l0,-16" class="g1_5" />
<path d="M554.5,398.5l0,-16" class="g1_5" />
<path d="M774.5,398.5l0,-16" class="g1_5" />
<path d="M106.5,399.5l0,-1" class="g1_5" />
<path d="M107.5,399.5l227,0" class="g1_5" />
<path d="M334.5,399.5l0,-1" class="g1_5" />
<path d="M336.5,399.5l218,0" class="g1_5" />
<path d="M554.5,399.5l0,-1" class="g1_5" />
<path d="M556.5,399.5l218,0" class="g1_5" />
<path d="M774.5,399.5l0,-1" class="g1_5" />
<path d="M106.5,415.5l0,-16" class="g1_5" />
<path d="M106.5,417.5l0,-2" class="g1_5" />
<path d="M106.5,417.5l0,-2" class="g1_5" />
<path d="M107.5,417.5l227,0" class="g1_5" />
<path d="M334.5,415.5l0,-16" class="g1_5" />
<path d="M334.5,417.5l0,-2" class="g1_5" />
<path d="M336.5,417.5l218,0" class="g1_5" />
<path d="M554.5,415.5l0,-16" class="g1_5" />
<path d="M554.5,417.5l0,-2" class="g1_5" />
<path d="M556.5,417.5l218,0" class="g1_5" />
<path d="M774.5,415.5l0,-16" class="g1_5" />
<path d="M774.5,417.5l0,-2" class="g1_5" />
<path d="M774.5,417.5l0,-2" class="g1_5" />
<path d="M106.5,450.5l0,-2" class="g1_5" />
<path d="M106.5,450.5l0,-2" class="g1_5" />
<path d="M107.5,450.5l227,0" class="g1_5" />
<path d="M334.5,450.5l0,-2" class="g1_5" />
<path d="M336.5,450.5l218,0" class="g1_5" />
<path d="M554.5,450.5l0,-2" class="g1_5" />
<path d="M556.5,450.5l218,0" class="g1_5" />
<path d="M774.5,450.5l0,-2" class="g1_5" />
<path d="M774.5,450.5l0,-2" class="g1_5" />
<path d="M106.5,466.5l0,-16" class="g1_5" />
<path d="M334.5,466.5l0,-16" class="g1_5" />
<path d="M554.5,466.5l0,-16" class="g1_5" />
<path d="M774.5,466.5l0,-16" class="g1_5" />
<path d="M106.5,467.5l0,-1" class="g1_5" />
<path d="M107.5,467.5l227,0" class="g1_5" />
<path d="M334.5,467.5l0,-1" class="g1_5" />
<path d="M336.5,467.5l218,0" class="g1_5" />
<path d="M554.5,467.5l0,-1" class="g1_5" />
<path d="M556.5,467.5l218,0" class="g1_5" />
<path d="M774.5,467.5l0,-1" class="g1_5" />
<path d="M106.5,483.5l0,-16" class="g1_5" />
<path d="M334.5,483.5l0,-16" class="g1_5" />
<path d="M554.5,483.5l0,-16" class="g1_5" />
<path d="M774.5,483.5l0,-16" class="g1_5" />
<path d="M106.5,484.5l0,-1" class="g1_5" />
<path d="M107.5,484.5l227,0" class="g1_5" />
<path d="M334.5,484.5l0,-1" class="g1_5" />
<path d="M336.5,484.5l218,0" class="g1_5" />
<path d="M554.5,484.5l0,-1" class="g1_5" />
<path d="M556.5,484.5l218,0" class="g1_5" />
<path d="M774.5,484.5l0,-1" class="g1_5" />
<path d="M106.5,501.5l0,-17" class="g1_5" />
<path d="M106.5,502.5l0,-1" class="g1_5" />
<path d="M106.5,502.5l0,-1" class="g1_5" />
<path d="M107.5,502.5l227,0" class="g1_5" />
<path d="M334.5,501.5l0,-17" class="g1_5" />
<path d="M334.5,502.5l0,-1" class="g1_5" />
<path d="M336.5,502.5l218,0" class="g1_5" />
<path d="M554.5,501.5l0,-17" class="g1_5" />
<path d="M554.5,502.5l0,-1" class="g1_5" />
<path d="M556.5,502.5l218,0" class="g1_5" />
<path d="M774.5,501.5l0,-17" class="g1_5" />
<path d="M774.5,502.5l0,-1" class="g1_5" />
<path d="M774.5,502.5l0,-1" class="g1_5" />
<path d="M106.5,535.5l0,-1" class="g1_5" />
<path d="M106.5,535.5l0,-1" class="g1_5" />
<path d="M107.5,535.5l227,0" class="g1_5" />
<path d="M334.5,535.5l0,-1" class="g1_5" />
<path d="M336.5,535.5l218,0" class="g1_5" />
<path d="M554.5,535.5l0,-1" class="g1_5" />
<path d="M556.5,535.5l218,0" class="g1_5" />
<path d="M774.5,535.5l0,-1" class="g1_5" />
<path d="M774.5,535.5l0,-1" class="g1_5" />
<path d="M106.5,551.5l0,-16" class="g1_5" />
<path d="M334.5,551.5l0,-16" class="g1_5" />
<path d="M554.5,551.5l0,-16" class="g1_5" />
<path d="M774.5,551.5l0,-16" class="g1_5" />
<path d="M106.5,553.5l0,-2" class="g1_5" />
<path d="M107.5,553.5l227,0" class="g1_5" />
<path d="M334.5,553.5l0,-2" class="g1_5" />
<path d="M336.5,553.5l218,0" class="g1_5" />
<path d="M554.5,553.5l0,-2" class="g1_5" />
<path d="M556.5,553.5l218,0" class="g1_5" />
<path d="M774.5,553.5l0,-2" class="g1_5" />
<path d="M106.5,569.5l0,-16" class="g1_5" />
<path d="M334.5,569.5l0,-16" class="g1_5" />
<path d="M554.5,569.5l0,-16" class="g1_5" />
<path d="M774.5,569.5l0,-16" class="g1_5" />
<path d="M106.5,570.5l0,-1" class="g1_5" />
<path d="M107.5,570.5l227,0" class="g1_5" />
<path d="M334.5,570.5l0,-1" class="g1_5" />
<path d="M336.5,570.5l218,0" class="g1_5" />
<path d="M554.5,570.5l0,-1" class="g1_5" />
<path d="M556.5,570.5l218,0" class="g1_5" />
<path d="M774.5,570.5l0,-1" class="g1_5" />
<path d="M106.5,586.5l0,-16" class="g1_5" />
<path d="M334.5,586.5l0,-16" class="g1_5" />
<path d="M554.5,586.5l0,-16" class="g1_5" />
<path d="M774.5,586.5l0,-16" class="g1_5" />
<path d="M106.5,587.5l0,-1" class="g1_5" />
<path d="M107.5,587.5l227,0" class="g1_5" />
<path d="M334.5,587.5l0,-1" class="g1_5" />
<path d="M336.5,587.5l218,0" class="g1_5" />
<path d="M554.5,587.5l0,-1" class="g1_5" />
<path d="M556.5,587.5l218,0" class="g1_5" />
<path d="M774.5,587.5l0,-1" class="g1_5" />
<path d="M106.5,603.5l0,-16" class="g1_5" />
<path d="M334.5,603.5l0,-16" class="g1_5" />
<path d="M554.5,603.5l0,-16" class="g1_5" />
<path d="M774.5,603.5l0,-16" class="g1_5" />
<path d="M106.5,605.5l0,-2" class="g1_5" />
<path d="M107.5,605.5l227,0" class="g1_5" />
<path d="M334.5,605.5l0,-2" class="g1_5" />
<path d="M336.5,605.5l218,0" class="g1_5" />
<path d="M554.5,605.5l0,-2" class="g1_5" />
<path d="M556.5,605.5l218,0" class="g1_5" />
<path d="M774.5,605.5l0,-2" class="g1_5" />
<path d="M106.5,621.5l0,-16" class="g1_5" />
<path d="M106.5,622.5l0,-1" class="g1_5" />
<path d="M106.5,622.5l0,-1" class="g1_5" />
<path d="M107.5,622.5l227,0" class="g1_5" />
<path d="M334.5,621.5l0,-16" class="g1_5" />
<path d="M334.5,622.5l0,-1" class="g1_5" />
<path d="M336.5,622.5l218,0" class="g1_5" />
<path d="M554.5,621.5l0,-16" class="g1_5" />
<path d="M554.5,622.5l0,-1" class="g1_5" />
<path d="M556.5,622.5l218,0" class="g1_5" />
<path d="M774.5,621.5l0,-16" class="g1_5" />
<path d="M774.5,622.5l0,-1" class="g1_5" />
<path d="M774.5,622.5l0,-1" class="g1_5" />
<path d="M106.5,656.5l0,-2" class="g1_5" />
<path d="M106.5,656.5l0,-2" class="g1_5" />
<path d="M107.5,656.5l227,0" class="g1_5" />
<path d="M334.5,656.5l0,-2" class="g1_5" />
<path d="M336.5,656.5l218,0" class="g1_5" />
<path d="M554.5,656.5l0,-2" class="g1_5" />
<path d="M556.5,656.5l218,0" class="g1_5" />
<path d="M774.5,656.5l0,-2" class="g1_5" />
<path d="M774.5,656.5l0,-2" class="g1_5" />
<path d="M106.5,671.5l0,-15" class="g1_5" />
<path d="M334.5,671.5l0,-15" class="g1_5" />
<path d="M554.5,671.5l0,-15" class="g1_5" />
<path d="M774.5,671.5l0,-15" class="g1_5" />
<path d="M106.5,673.5l0,-2" class="g1_5" />
<path d="M107.5,673.5l227,0" class="g1_5" />
<path d="M334.5,673.5l0,-2" class="g1_5" />
<path d="M336.5,673.5l218,0" class="g1_5" />
<path d="M554.5,673.5l0,-2" class="g1_5" />
<path d="M556.5,673.5l218,0" class="g1_5" />
<path d="M774.5,673.5l0,-2" class="g1_5" />
<path d="M106.5,689.5l0,-16" class="g1_5" />
<path d="M334.5,689.5l0,-16" class="g1_5" />
<path d="M554.5,689.5l0,-16" class="g1_5" />
<path d="M774.5,689.5l0,-16" class="g1_5" />
<path d="M106.5,690.5l0,-1" class="g1_5" />
<path d="M107.5,690.5l227,0" class="g1_5" />
<path d="M334.5,690.5l0,-1" class="g1_5" />
<path d="M336.5,690.5l218,0" class="g1_5" />
<path d="M554.5,690.5l0,-1" class="g1_5" />
<path d="M556.5,690.5l218,0" class="g1_5" />
<path d="M774.5,690.5l0,-1" class="g1_5" />
<path d="M106.5,706.5l0,-16" class="g1_5" />
<path d="M106.5,708.5l0,-2" class="g1_5" />
<path d="M106.5,708.5l0,-2" class="g1_5" />
<path d="M107.5,708.5l227,0" class="g1_5" />
<path d="M334.5,706.5l0,-16" class="g1_5" />
<path d="M334.5,708.5l0,-2" class="g1_5" />
<path d="M336.5,708.5l218,0" class="g1_5" />
<path d="M554.5,706.5l0,-16" class="g1_5" />
<path d="M554.5,708.5l0,-2" class="g1_5" />
<path d="M556.5,708.5l218,0" class="g1_5" />
<path d="M774.5,706.5l0,-16" class="g1_5" />
<path d="M774.5,708.5l0,-2" class="g1_5" />
<path d="M774.5,708.5l0,-2" class="g1_5" />
<path d="M106.5,741.5l0,-1" class="g1_5" />
<path d="M106.5,741.5l0,-1" class="g1_5" />
<path d="M107.5,741.5l227,0" class="g1_5" />
<path d="M334.5,741.5l0,-1" class="g1_5" />
<path d="M336.5,741.5l218,0" class="g1_5" />
<path d="M554.5,741.5l0,-1" class="g1_5" />
<path d="M556.5,741.5l218,0" class="g1_5" />
<path d="M774.5,741.5l0,-1" class="g1_5" />
<path d="M774.5,741.5l0,-1" class="g1_5" />
<path d="M106.5,757.5l0,-16" class="g1_5" />
<path d="M334.5,757.5l0,-16" class="g1_5" />
<path d="M554.5,757.5l0,-16" class="g1_5" />
<path d="M774.5,757.5l0,-16" class="g1_5" />
<path d="M106.5,758.5l0,-1" class="g1_5" />
<path d="M107.5,758.5l227,0" class="g1_5" />
<path d="M334.5,758.5l0,-1" class="g1_5" />
<path d="M336.5,758.5l218,0" class="g1_5" />
<path d="M554.5,758.5l0,-1" class="g1_5" />
<path d="M556.5,758.5l218,0" class="g1_5" />
<path d="M774.5,758.5l0,-1" class="g1_5" />
<path d="M106.5,774.5l0,-16" class="g1_5" />
<path d="M334.5,774.5l0,-16" class="g1_5" />
<path d="M554.5,774.5l0,-16" class="g1_5" />
<path d="M774.5,774.5l0,-16" class="g1_5" />
<path d="M106.5,776.5l0,-2" class="g1_5" />
<path d="M107.5,776.5l227,0" class="g1_5" />
<path d="M334.5,776.5l0,-2" class="g1_5" />
<path d="M336.5,776.5l218,0" class="g1_5" />
<path d="M554.5,776.5l0,-2" class="g1_5" />
<path d="M556.5,776.5l218,0" class="g1_5" />
<path d="M774.5,776.5l0,-2" class="g1_5" />
<path d="M106.5,792.5l0,-16" class="g1_5" />
<path d="M334.5,792.5l0,-16" class="g1_5" />
<path d="M554.5,792.5l0,-16" class="g1_5" />
<path d="M774.5,792.5l0,-16" class="g1_5" />
<path d="M106.5,793.5l0,-1" class="g1_5" />
<path d="M107.5,793.5l227,0" class="g1_5" />
<path d="M334.5,793.5l0,-1" class="g1_5" />
<path d="M336.5,793.5l218,0" class="g1_5" />
<path d="M554.5,793.5l0,-1" class="g1_5" />
<path d="M556.5,793.5l218,0" class="g1_5" />
<path d="M774.5,793.5l0,-1" class="g1_5" />
<path d="M106.5,809.5l0,-16" class="g1_5" />
<path d="M334.5,809.5l0,-16" class="g1_5" />
<path d="M554.5,809.5l0,-16" class="g1_5" />
<path d="M774.5,809.5l0,-16" class="g1_5" />
<path d="M106.5,811.5l0,-2" class="g1_5" />
<path d="M107.5,811.5l227,0" class="g1_5" />
<path d="M334.5,811.5l0,-2" class="g1_5" />
<path d="M336.5,811.5l218,0" class="g1_5" />
<path d="M554.5,811.5l0,-2" class="g1_5" />
<path d="M556.5,811.5l218,0" class="g1_5" />
<path d="M774.5,811.5l0,-2" class="g1_5" />
<path d="M106.5,827.5l0,-16" class="g1_5" />
<path d="M106.5,828.5l0,-1" class="g1_5" />
<path d="M106.5,828.5l0,-1" class="g1_5" />
<path d="M107.5,828.5l227,0" class="g1_5" />
<path d="M334.5,827.5l0,-16" class="g1_5" />
<path d="M334.5,828.5l0,-1" class="g1_5" />
<path d="M336.5,828.5l218,0" class="g1_5" />
<path d="M554.5,827.5l0,-16" class="g1_5" />
<path d="M554.5,828.5l0,-1" class="g1_5" />
<path d="M556.5,828.5l218,0" class="g1_5" />
<path d="M774.5,827.5l0,-16" class="g1_5" />
<path d="M774.5,828.5l0,-1" class="g1_5" />
<path d="M774.5,828.5l0,-1" class="g1_5" />
<path d="M106.5,861.5l0,-1" class="g1_5" />
<path d="M106.5,861.5l0,-1" class="g1_5" />
<path d="M107.5,861.5l227,0" class="g1_5" />
<path d="M334.5,861.5l0,-1" class="g1_5" />
<path d="M336.5,861.5l218,0" class="g1_5" />
<path d="M554.5,861.5l0,-1" class="g1_5" />
<path d="M556.5,861.5l218,0" class="g1_5" />
<path d="M774.5,861.5l0,-1" class="g1_5" />
<path d="M774.5,861.5l0,-1" class="g1_5" />
<path d="M106.5,877.5l0,-16" class="g1_5" />
<path d="M334.5,877.5l0,-16" class="g1_5" />
<path d="M554.5,877.5l0,-16" class="g1_5" />
<path d="M774.5,877.5l0,-16" class="g1_5" />
<path d="M106.5,879.5l0,-2" class="g1_5" />
<path d="M107.5,879.5l227,0" class="g1_5" />
<path d="M334.5,879.5l0,-2" class="g1_5" />
<path d="M336.5,879.5l218,0" class="g1_5" />
<path d="M554.5,879.5l0,-2" class="g1_5" />
<path d="M556.5,879.5l218,0" class="g1_5" />
<path d="M774.5,879.5l0,-2" class="g1_5" />
<path d="M106.5,895.5l0,-16" class="g1_5" />
<path d="M334.5,895.5l0,-16" class="g1_5" />
<path d="M554.5,895.5l0,-16" class="g1_5" />
<path d="M774.5,895.5l0,-16" class="g1_5" />
<path d="M106.5,896.5l0,-1" class="g1_5" />
<path d="M107.5,896.5l227,0" class="g1_5" />
<path d="M334.5,896.5l0,-1" class="g1_5" />
<path d="M336.5,896.5l218,0" class="g1_5" />
<path d="M554.5,896.5l0,-1" class="g1_5" />
<path d="M556.5,896.5l218,0" class="g1_5" />
<path d="M774.5,896.5l0,-1" class="g1_5" />
<path d="M106.5,912.5l0,-16" class="g1_5" />
<path d="M106.5,914.5l0,-2" class="g1_5" />
<path d="M106.5,914.5l0,-2" class="g1_5" />
<path d="M107.5,914.5l227,0" class="g1_5" />
<path d="M334.5,912.5l0,-16" class="g1_5" />
<path d="M334.5,914.5l0,-2" class="g1_5" />
<path d="M336.5,914.5l218,0" class="g1_5" />
<path d="M554.5,912.5l0,-16" class="g1_5" />
<path d="M554.5,914.5l0,-2" class="g1_5" />
<path d="M556.5,914.5l218,0" class="g1_5" />
<path d="M774.5,912.5l0,-16" class="g1_5" />
<path d="M774.5,914.5l0,-2" class="g1_5" />
<path d="M774.5,914.5l0,-2" class="g1_5" />
<path d="M106.5,947.5l0,-2" class="g1_5" />
<path d="M106.5,947.5l0,-2" class="g1_5" />
<path d="M107.5,947.5l227,0" class="g1_5" />
<path d="M334.5,947.5l0,-2" class="g1_5" />
<path d="M336.5,947.5l218,0" class="g1_5" />
<path d="M554.5,947.5l0,-2" class="g1_5" />
<path d="M556.5,947.5l218,0" class="g1_5" />
<path d="M774.5,947.5l0,-2" class="g1_5" />
<path d="M774.5,947.5l0,-2" class="g1_5" />
<path d="M106.5,963.5l0,-16" class="g1_5" />
<path d="M334.5,963.5l0,-16" class="g1_5" />
<path d="M554.5,963.5l0,-16" class="g1_5" />
<path d="M774.5,963.5l0,-16" class="g1_5" />
<path d="M106.5,964.5l0,-1" class="g1_5" />
<path d="M107.5,964.5l227,0" class="g1_5" />
<path d="M334.5,964.5l0,-1" class="g1_5" />
<path d="M336.5,964.5l218,0" class="g1_5" />
<path d="M554.5,964.5l0,-1" class="g1_5" />
<path d="M556.5,964.5l218,0" class="g1_5" />
<path d="M774.5,964.5l0,-1" class="g1_5" />
<path d="M106.5,980.5l0,-16" class="g1_5" />
<path d="M334.5,980.5l0,-16" class="g1_5" />
<path d="M554.5,980.5l0,-16" class="g1_5" />
<path d="M774.5,980.5l0,-16" class="g1_5" />
<path d="M106.5,982.5l0,-2" class="g1_5" />
<path d="M107.5,982.5l227,0" class="g1_5" />
<path d="M334.5,982.5l0,-2" class="g1_5" />
<path d="M336.5,982.5l218,0" class="g1_5" />
<path d="M554.5,982.5l0,-2" class="g1_5" />
<path d="M556.5,982.5l218,0" class="g1_5" />
<path d="M774.5,982.5l0,-2" class="g1_5" />
<path d="M106.5,998.5l0,-16" class="g1_5" />
<path d="M334.5,998.5l0,-16" class="g1_5" />
<path d="M554.5,998.5l0,-16" class="g1_5" />
<path d="M774.5,998.5l0,-16" class="g1_5" />
<path d="M106.5,999.5l0,-1" class="g1_5" />
<path d="M107.5,999.5l227,0" class="g1_5" />
<path d="M334.5,999.5l0,-1" class="g1_5" />
<path d="M336.5,999.5l218,0" class="g1_5" />
<path d="M554.5,999.5l0,-1" class="g1_5" />
<path d="M556.5,999.5l218,0" class="g1_5" />
<path d="M774.5,999.5l0,-1" class="g1_5" />
<path d="M106.5,1015.5l0,-16" class="g1_5" />
<path d="M334.5,1015.5l0,-16" class="g1_5" />
<path d="M554.5,1015.5l0,-16" class="g1_5" />
<path d="M774.5,1015.5l0,-16" class="g1_5" />
<path d="M106.5,1016.5l0,-1" class="g1_5" />
<path d="M107.5,1016.5l227,0" class="g1_5" />
<path d="M334.5,1016.5l0,-1" class="g1_5" />
<path d="M336.5,1016.5l218,0" class="g1_5" />
<path d="M554.5,1016.5l0,-1" class="g1_5" />
<path d="M556.5,1016.5l218,0" class="g1_5" />
<path d="M774.5,1016.5l0,-1" class="g1_5" />
<path d="M106.5,1033.5l0,-17" class="g1_5" />
<path d="M106.5,1034.5l0,-1" class="g1_5" />
<path d="M106.5,1034.5l0,-1" class="g1_5" />
<path d="M107.5,1034.5l227,0" class="g1_5" />
<path d="M334.5,1033.5l0,-17" class="g1_5" />
<path d="M334.5,1034.5l0,-1" class="g1_5" />
<path d="M336.5,1034.5l218,0" class="g1_5" />
<path d="M554.5,1033.5l0,-17" class="g1_5" />
<path d="M554.5,1034.5l0,-1" class="g1_5" />
<path d="M556.5,1034.5l218,0" class="g1_5" />
<path d="M774.5,1033.5l0,-17" class="g1_5" />
<path d="M774.5,1034.5l0,-1" class="g1_5" />
<path d="M774.5,1034.5l0,-1" class="g1_5" />
</g>
</svg>