<?xml version="1.0" encoding="UTF-8" standalone="no"?>
<!DOCTYPE svg PUBLIC "-//W3C//DTD SVG 1.1//EN"
"http://www.w3.org/Graphics/SVG/1.1/DTD/svg11.dtd">
<svg version="1.1" xmlns="http://www.w3.org/2000/svg" xmlns:xlink="http://www.w3.org/1999/xlink">
<defs>
<clipPath id="c0_9"><path d="M13.5,1148.5l0,-1135l908,0l0,1135Z" /></clipPath>
<style type="text/css"><![CDATA[
.g4_9{
}
.g2_9{
fill: none;
stroke: #000000;
stroke-width: 2;
stroke-linecap: round;
stroke-linejoin: round;
stroke-miterlimit: 8;
}
.g1_9{
fill: none;
stroke: #000000;
stroke-width: 1;
stroke-linecap: butt;
stroke-linejoin: miter;
}
.g3_9{
fill: #FF6600;
stroke: #FF6600;
stroke-width: 2;
stroke-linecap: round;
stroke-linejoin: round;
stroke-miterlimit: 8;
}
.g5_9{
fill: #00FFFF;
stroke: #00FFFF;
stroke-width: 2;
stroke-linecap: round;
stroke-linejoin: round;
stroke-miterlimit: 8;
}
]]></style>
</defs>
<g clip-path="url(#c0_9)">
<path d="M146.5,684.5l94,0" class="g1_9" />
<path d="M389,159c8,0,16,0,25,0c2,0,4,0,6,-1c1,-1,2,-3,3,-4c3,-2,5,-3,8,-5c1,0,3,-1,4,-2c9,-5,0,-2,8,-4c7,-7,13,-10,20,-18c2,-7,-1,0,4,-6c2,-1,3,-3,4,-4c3,-7,2,-7,9,-8c1,-2,2,-3,4,-4c1,-1,3,-1,4,-2c5,-4,4,-12,9,-16c1,0,3,0,4,-1c5,-7,13,-10,21,-12c2,-1,4,-2,7,-2c1,-1,3,-2,3,-2c4,1,7,2,11,3c3,1,4,4,7,7c5,4,3,1,8,4c11,6,-8,-2,10,5c1,0,4,1,4,1c2,5,6,7,10,12c1,1,2,2,2,3c1,2,0,3,1,4c1,1,3,2,5,3c1,1,1,3,2,4c2,1,7,2,7,2c0,2,0,4,1,5c1,1,2,2,3,3c4,2,6,5,10,6c0,0,9,3,9,3c2,3,2,7,5,8c6,2,12,3,19,5c6,4,12,6,19,8c2,1,4,1,6,2c2,0,7,3,7,3" class="g2_9" />
<path d="M322,165l467,0" class="g2_9" />
<path fill-rule="evenodd" d="M278,130c0,3,1,7,1,10c1,1,0,5,2,6c2,1,4,-1,6,-2c7,-4,4,-1,4,-11c0,-3,1,-7,-1,-10c-2,-1,-3,3,-4,4c-7,3,-14,3,-8,3Z" class="g3_9" />
<path d="M432,151l0,30" class="g2_9" />
<path fill-rule="evenodd" d="M426,181l6,11l6,-11Z" class="g4_9" />
<path fill-rule="evenodd" d="M260,749c1,3,1,6,2,9c0,2,-1,5,1,6c2,1,4,-1,6,-1c7,-5,5,-2,5,-11c-1,-4,1,-8,-2,-11c-1,-1,-2,4,-4,5c-6,3,-13,3,-8,3Z" class="g5_9" />
<path d="M402,739c9,0,17,0,25,0c3,0,4,0,6,-1c2,-1,3,-3,4,-4c3,-2,5,-3,7,-4c2,-1,4,-2,5,-3c8,-5,0,-2,8,-4c6,-7,13,-10,19,-18c3,-7,-1,0,5,-6c1,-1,3,-3,4,-4c2,-7,2,-7,8,-8c2,-1,3,-3,4,-4c2,-1,4,-1,5,-2c5,-4,4,-12,9,-16c1,0,3,0,4,-1c5,-7,12,-10,20,-12c3,-1,5,-2,8,-2c1,-1,3,-1,3,-1c4,0,7,1,10,2c4,2,5,4,7,7c6,4,3,1,9,4c11,6,-8,-2,10,5c1,1,3,1,3,1c3,5,7,7,11,12c0,1,1,2,2,3c0,2,0,3,1,4c1,1,3,2,4,3c1,1,2,3,3,4c2,1,7,2,7,2c0,2,0,4,1,5c0,1,2,2,3,3c4,2,5,5,10,6c0,0,9,3,9,3c1,3,2,6,4,7c7,3,13,4,20,6c5,4,12,6,19,8c2,1,4,1,5,2c3,1,8,2,8,2" class="g2_9" />
<path d="M514,662l0,97" class="g2_9" />
<path d="M349,737l468,0" class="g2_9" />
<path d="M583,668l0,96" class="g2_9" />
<path fill-rule="evenodd" d="M588,681c0,11,1,23,1,34c0,7,-3,14,-1,21c0,2,4,1,6,2c25,-1,39,-4,64,-7c4,1,14,6,12,2c-3,-6,-13,-3,-18,-6c-2,-1,-3,-3,-5,-3c-3,-1,-9,-3,-9,-3c0,-2,0,-4,-2,-5c-1,-1,-3,-1,-4,-1c-2,-1,-3,-2,-5,-3c-1,-2,-2,-4,-4,-5c-2,-1,-3,-1,-5,-1c-1,-1,-3,-2,-4,-4c-1,-1,0,-4,-2,-5c-2,-3,-9,-7,-9,-7c-1,-1,-1,-3,-3,-4c-5,-3,-10,-1,-15,-6c-1,-1,2,0,3,1Z" class="g5_9" />
<path fill-rule="evenodd" d="M511,684c-1,10,-1,20,-1,31c0,6,2,13,1,20c-1,2,-4,0,-6,1c-23,-1,-37,-3,-60,-6c-4,1,-13,5,-11,2c3,-6,12,-3,17,-6c1,-1,2,-2,4,-3c3,-1,9,-3,9,-3c0,-1,0,-3,1,-4c1,-1,3,-1,4,-1c2,-1,4,-2,5,-3c1,-2,2,-3,4,-4c1,-1,3,-1,4,-2c2,-1,3,-2,4,-2c1,-2,1,-5,2,-6c2,-3,8,-6,8,-6c1,-1,2,-3,3,-4c5,-3,10,-1,15,-6c0,0,-2,1,-3,2Z" class="g5_9" />
<path fill-rule="evenodd" d="M391,159c8,0,16,0,24,-1c2,0,3,-2,5,-3c1,0,3,-1,4,-1c2,-1,3,-1,5,-2c1,0,2,0,2,0c-4,16,-7,10,-32,10c-7,1,-12,2,-19,2c-7,-1,-5,0,-1,-1c3,-1,6,-1,8,-3c1,-1,2,-1,3,-2c0,0,1,1,1,1Z" class="g3_9" />
</g>
</svg>