<?xml version="1.0" encoding="UTF-8" standalone="no"?>
<!DOCTYPE svg PUBLIC "-//W3C//DTD SVG 1.1//EN"
"http://www.w3.org/Graphics/SVG/1.1/DTD/svg11.dtd">
<svg version="1.1" xmlns="http://www.w3.org/2000/svg" xmlns:xlink="http://www.w3.org/1999/xlink">
<defs>
<clipPath id="c0_18"><path d="M18.5,1191.5l0,-1173l898,0l0,1173Z" /></clipPath>
<style type="text/css"><![CDATA[
.g1_18{
fill: none;
stroke: #000000;
stroke-width: 1;
stroke-linecap: butt;
stroke-linejoin: miter;
}
]]></style>
</defs>
<g clip-path="url(#c0_18)">
<path d="M128.5,110.5l0,-1" class="g1_18" />
<path d="M128.5,110.5l0,-1" class="g1_18" />
<path d="M129.5,110.5l51,0" class="g1_18" />
<path d="M180.5,110.5l0,-1" class="g1_18" />
<path d="M180.5,110.5l81,0" class="g1_18" />
<path d="M261.5,110.5l0,-1" class="g1_18" />
<path d="M262.5,110.5l117,0" class="g1_18" />
<path d="M379.5,110.5l0,-1" class="g1_18" />
<path d="M380.5,110.5l110,0" class="g1_18" />
<path d="M490.5,110.5l0,-1" class="g1_18" />
<path d="M490.5,110.5l79,0" class="g1_18" />
<path d="M569.5,110.5l0,-1" class="g1_18" />
<path d="M569.5,110.5l119,0" class="g1_18" />
<path d="M688.5,110.5l0,-1" class="g1_18" />
<path d="M689.5,110.5l116,0" class="g1_18" />
<path d="M805.5,110.5l0,-1" class="g1_18" />
<path d="M805.5,110.5l0,-1" class="g1_18" />
<path d="M128.5,227.5l0,-117" class="g1_18" />
<path d="M180.5,227.5l0,-117" class="g1_18" />
<path d="M261.5,227.5l0,-117" class="g1_18" />
<path d="M379.5,227.5l0,-117" class="g1_18" />
<path d="M490.5,227.5l0,-117" class="g1_18" />
<path d="M569.5,227.5l0,-117" class="g1_18" />
<path d="M688.5,227.5l0,-117" class="g1_18" />
<path d="M805.5,227.5l0,-117" class="g1_18" />
<path d="M128.5,228.5l0,-1" class="g1_18" />
<path d="M129.5,228.5l51,0" class="g1_18" />
<path d="M180.5,228.5l0,-1" class="g1_18" />
<path d="M180.5,228.5l81,0" class="g1_18" />
<path d="M261.5,228.5l0,-1" class="g1_18" />
<path d="M262.5,228.5l117,0" class="g1_18" />
<path d="M379.5,228.5l0,-1" class="g1_18" />
<path d="M380.5,228.5l110,0" class="g1_18" />
<path d="M490.5,228.5l0,-1" class="g1_18" />
<path d="M490.5,228.5l79,0" class="g1_18" />
<path d="M569.5,228.5l0,-1" class="g1_18" />
<path d="M569.5,228.5l119,0" class="g1_18" />
<path d="M688.5,228.5l0,-1" class="g1_18" />
<path d="M689.5,228.5l116,0" class="g1_18" />
<path d="M805.5,228.5l0,-1" class="g1_18" />
<path d="M128.5,247.5l0,-19" class="g1_18" />
<path d="M180.5,247.5l0,-19" class="g1_18" />
<path d="M261.5,247.5l0,-19" class="g1_18" />
<path d="M379.5,247.5l0,-19" class="g1_18" />
<path d="M490.5,247.5l0,-19" class="g1_18" />
<path d="M569.5,247.5l0,-19" class="g1_18" />
<path d="M688.5,247.5l0,-19" class="g1_18" />
<path d="M805.5,247.5l0,-19" class="g1_18" />
<path d="M128.5,248.5l0,-1" class="g1_18" />
<path d="M129.5,248.5l51,0" class="g1_18" />
<path d="M180.5,248.5l0,-1" class="g1_18" />
<path d="M180.5,248.5l81,0" class="g1_18" />
<path d="M261.5,248.5l0,-1" class="g1_18" />
<path d="M262.5,248.5l117,0" class="g1_18" />
<path d="M379.5,248.5l0,-1" class="g1_18" />
<path d="M380.5,248.5l110,0" class="g1_18" />
<path d="M490.5,248.5l0,-1" class="g1_18" />
<path d="M490.5,248.5l79,0" class="g1_18" />
<path d="M569.5,248.5l0,-1" class="g1_18" />
<path d="M569.5,248.5l119,0" class="g1_18" />
<path d="M688.5,248.5l0,-1" class="g1_18" />
<path d="M689.5,248.5l116,0" class="g1_18" />
<path d="M805.5,248.5l0,-1" class="g1_18" />
<path d="M128.5,267.5l0,-19" class="g1_18" />
<path d="M180.5,267.5l0,-19" class="g1_18" />
<path d="M261.5,267.5l0,-19" class="g1_18" />
<path d="M379.5,267.5l0,-19" class="g1_18" />
<path d="M490.5,267.5l0,-19" class="g1_18" />
<path d="M569.5,267.5l0,-19" class="g1_18" />
<path d="M688.5,267.5l0,-19" class="g1_18" />
<path d="M805.5,267.5l0,-19" class="g1_18" />
<path d="M128.5,268.5l0,-1" class="g1_18" />
<path d="M129.5,268.5l51,0" class="g1_18" />
<path d="M180.5,268.5l0,-1" class="g1_18" />
<path d="M180.5,268.5l81,0" class="g1_18" />
<path d="M261.5,268.5l0,-1" class="g1_18" />
<path d="M262.5,268.5l117,0" class="g1_18" />
<path d="M379.5,268.5l0,-1" class="g1_18" />
<path d="M380.5,268.5l110,0" class="g1_18" />
<path d="M490.5,268.5l0,-1" class="g1_18" />
<path d="M490.5,268.5l79,0" class="g1_18" />
<path d="M569.5,268.5l0,-1" class="g1_18" />
<path d="M569.5,268.5l119,0" class="g1_18" />
<path d="M688.5,268.5l0,-1" class="g1_18" />
<path d="M689.5,268.5l116,0" class="g1_18" />
<path d="M805.5,268.5l0,-1" class="g1_18" />
<path d="M128.5,287.5l0,-19" class="g1_18" />
<path d="M180.5,287.5l0,-19" class="g1_18" />
<path d="M261.5,287.5l0,-19" class="g1_18" />
<path d="M379.5,287.5l0,-19" class="g1_18" />
<path d="M490.5,287.5l0,-19" class="g1_18" />
<path d="M569.5,287.5l0,-19" class="g1_18" />
<path d="M688.5,287.5l0,-19" class="g1_18" />
<path d="M805.5,287.5l0,-19" class="g1_18" />
<path d="M128.5,288.5l0,-1" class="g1_18" />
<path d="M129.5,288.5l51,0" class="g1_18" />
<path d="M180.5,288.5l0,-1" class="g1_18" />
<path d="M180.5,288.5l81,0" class="g1_18" />
<path d="M261.5,288.5l0,-1" class="g1_18" />
<path d="M262.5,288.5l117,0" class="g1_18" />
<path d="M379.5,288.5l0,-1" class="g1_18" />
<path d="M380.5,288.5l110,0" class="g1_18" />
<path d="M490.5,288.5l0,-1" class="g1_18" />
<path d="M490.5,288.5l79,0" class="g1_18" />
<path d="M569.5,288.5l0,-1" class="g1_18" />
<path d="M569.5,288.5l119,0" class="g1_18" />
<path d="M688.5,288.5l0,-1" class="g1_18" />
<path d="M689.5,288.5l116,0" class="g1_18" />
<path d="M805.5,288.5l0,-1" class="g1_18" />
<path d="M128.5,307.5l0,-19" class="g1_18" />
<path d="M180.5,307.5l0,-19" class="g1_18" />
<path d="M261.5,307.5l0,-19" class="g1_18" />
<path d="M379.5,307.5l0,-19" class="g1_18" />
<path d="M490.5,307.5l0,-19" class="g1_18" />
<path d="M569.5,307.5l0,-19" class="g1_18" />
<path d="M688.5,307.5l0,-19" class="g1_18" />
<path d="M805.5,307.5l0,-19" class="g1_18" />
<path d="M128.5,308.5l0,-1" class="g1_18" />
<path d="M129.5,308.5l51,0" class="g1_18" />
<path d="M180.5,308.5l0,-1" class="g1_18" />
<path d="M180.5,308.5l81,0" class="g1_18" />
<path d="M261.5,308.5l0,-1" class="g1_18" />
<path d="M262.5,308.5l117,0" class="g1_18" />
<path d="M379.5,308.5l0,-1" class="g1_18" />
<path d="M380.5,308.5l110,0" class="g1_18" />
<path d="M490.5,308.5l0,-1" class="g1_18" />
<path d="M490.5,308.5l79,0" class="g1_18" />
<path d="M569.5,308.5l0,-1" class="g1_18" />
<path d="M569.5,308.5l119,0" class="g1_18" />
<path d="M688.5,308.5l0,-1" class="g1_18" />
<path d="M689.5,308.5l116,0" class="g1_18" />
<path d="M805.5,308.5l0,-1" class="g1_18" />
<path d="M128.5,328.5l0,-20" class="g1_18" />
<path d="M180.5,328.5l0,-20" class="g1_18" />
<path d="M261.5,328.5l0,-20" class="g1_18" />
<path d="M379.5,328.5l0,-20" class="g1_18" />
<path d="M490.5,328.5l0,-20" class="g1_18" />
<path d="M569.5,328.5l0,-20" class="g1_18" />
<path d="M688.5,328.5l0,-20" class="g1_18" />
<path d="M805.5,328.5l0,-20" class="g1_18" />
<path d="M129.5,328.5l51,0" class="g1_18" />
<path d="M180.5,328.5l81,0" class="g1_18" />
<path d="M262.5,328.5l117,0" class="g1_18" />
<path d="M380.5,328.5l110,0" class="g1_18" />
<path d="M490.5,328.5l79,0" class="g1_18" />
<path d="M569.5,328.5l119,0" class="g1_18" />
<path d="M689.5,328.5l116,0" class="g1_18" />
<path d="M128.5,348.5l0,-20" class="g1_18" />
<path d="M180.5,348.5l0,-20" class="g1_18" />
<path d="M261.5,348.5l0,-20" class="g1_18" />
<path d="M379.5,348.5l0,-20" class="g1_18" />
<path d="M490.5,348.5l0,-20" class="g1_18" />
<path d="M569.5,348.5l0,-20" class="g1_18" />
<path d="M688.5,348.5l0,-20" class="g1_18" />
<path d="M805.5,348.5l0,-20" class="g1_18" />
<path d="M128.5,349.5l0,-1" class="g1_18" />
<path d="M129.5,349.5l51,0" class="g1_18" />
<path d="M180.5,349.5l0,-1" class="g1_18" />
<path d="M180.5,349.5l81,0" class="g1_18" />
<path d="M261.5,349.5l0,-1" class="g1_18" />
<path d="M262.5,349.5l117,0" class="g1_18" />
<path d="M379.5,349.5l0,-1" class="g1_18" />
<path d="M380.5,349.5l110,0" class="g1_18" />
<path d="M490.5,349.5l0,-1" class="g1_18" />
<path d="M490.5,349.5l79,0" class="g1_18" />
<path d="M569.5,349.5l0,-1" class="g1_18" />
<path d="M569.5,349.5l119,0" class="g1_18" />
<path d="M688.5,349.5l0,-1" class="g1_18" />
<path d="M689.5,349.5l116,0" class="g1_18" />
<path d="M805.5,349.5l0,-1" class="g1_18" />
<path d="M128.5,368.5l0,-19" class="g1_18" />
<path d="M180.5,368.5l0,-19" class="g1_18" />
<path d="M261.5,368.5l0,-19" class="g1_18" />
<path d="M379.5,368.5l0,-19" class="g1_18" />
<path d="M490.5,368.5l0,-19" class="g1_18" />
<path d="M569.5,368.5l0,-19" class="g1_18" />
<path d="M688.5,368.5l0,-19" class="g1_18" />
<path d="M805.5,368.5l0,-19" class="g1_18" />
<path d="M128.5,369.5l0,-1" class="g1_18" />
<path d="M129.5,369.5l51,0" class="g1_18" />
<path d="M180.5,369.5l0,-1" class="g1_18" />
<path d="M180.5,369.5l81,0" class="g1_18" />
<path d="M261.5,369.5l0,-1" class="g1_18" />
<path d="M262.5,369.5l117,0" class="g1_18" />
<path d="M379.5,369.5l0,-1" class="g1_18" />
<path d="M380.5,369.5l110,0" class="g1_18" />
<path d="M490.5,369.5l0,-1" class="g1_18" />
<path d="M490.5,369.5l79,0" class="g1_18" />
<path d="M569.5,369.5l0,-1" class="g1_18" />
<path d="M569.5,369.5l119,0" class="g1_18" />
<path d="M688.5,369.5l0,-1" class="g1_18" />
<path d="M689.5,369.5l116,0" class="g1_18" />
<path d="M805.5,369.5l0,-1" class="g1_18" />
<path d="M128.5,388.5l0,-19" class="g1_18" />
<path d="M128.5,389.5l0,-1" class="g1_18" />
<path d="M128.5,389.5l0,-1" class="g1_18" />
<path d="M129.5,389.5l51,0" class="g1_18" />
<path d="M180.5,388.5l0,-19" class="g1_18" />
<path d="M180.5,389.5l0,-1" class="g1_18" />
<path d="M180.5,389.5l81,0" class="g1_18" />
<path d="M261.5,388.5l0,-19" class="g1_18" />
<path d="M261.5,389.5l0,-1" class="g1_18" />
<path d="M262.5,389.5l117,0" class="g1_18" />
<path d="M379.5,388.5l0,-19" class="g1_18" />
<path d="M379.5,389.5l0,-1" class="g1_18" />
<path d="M380.5,389.5l110,0" class="g1_18" />
<path d="M490.5,388.5l0,-19" class="g1_18" />
<path d="M490.5,389.5l0,-1" class="g1_18" />
<path d="M490.5,389.5l79,0" class="g1_18" />
<path d="M569.5,388.5l0,-19" class="g1_18" />
<path d="M569.5,389.5l0,-1" class="g1_18" />
<path d="M569.5,389.5l119,0" class="g1_18" />
<path d="M688.5,388.5l0,-19" class="g1_18" />
<path d="M688.5,389.5l0,-1" class="g1_18" />
<path d="M689.5,389.5l116,0" class="g1_18" />
<path d="M805.5,388.5l0,-19" class="g1_18" />
<path d="M805.5,389.5l0,-1" class="g1_18" />
<path d="M805.5,389.5l0,-1" class="g1_18" />
</g>
</svg>